<svg version="1.1" id="Layer_1" xmlns="http://www.w3.org/2000/svg" xmlns:xlink="http://www.w3.org/1999/xlink" x="0px" y="0px"
	 width="100%" viewBox="0 0 1024 1024" enable-background="new 0 0 1024 1024" xml:space="preserve">
<path fill="#000000" opacity="1.000000" stroke="none" 
	d="
M346.095459,435.385223 
	C344.293518,444.610046 342.684845,453.464752 340.728851,462.242126 
	C340.126617,464.944763 338.775421,467.545746 337.423584,470.004395 
	C332.640045,478.704315 333.712555,488.889923 330.203308,497.900574 
	C329.972534,498.493073 329.965546,499.238953 330.061554,499.882599 
	C331.658600,510.589386 327.395599,520.886841 327.716919,531.362122 
	C327.898865,537.293762 326.798706,544.191223 332.744812,549.169495 
	C335.248077,551.265320 336.293701,555.224976 335.957336,558.853333 
	C334.535126,574.194580 340.503235,587.686157 346.187531,601.312988 
	C347.441711,604.319519 347.660492,607.761780 348.318817,611.010925 
	C348.541443,612.109863 348.167114,613.071655 347.054779,613.404053 
	C345.554199,613.852417 344.432037,613.006226 343.658356,611.860657 
	C340.496979,607.179932 337.146820,602.664429 334.559326,597.562134 
	C326.825592,582.311768 322.784485,565.763916 317.959961,549.572449 
	C315.655823,541.839600 315.849640,533.066406 316.381622,524.859680 
	C317.040955,514.688843 316.885956,504.553467 316.951233,494.402893 
	C317.079651,474.432617 322.009583,455.623688 330.203979,437.530701 
	C337.782715,420.796967 346.493347,404.818634 357.873108,390.243713 
	C373.037567,370.821381 391.214539,354.999603 412.642456,343.083008 
	C423.629272,336.972961 434.414001,330.004517 446.613892,326.619476 
	C459.464478,323.053864 471.689941,317.686615 485.415100,316.451294 
	C500.706787,315.074951 515.903687,316.210449 531.115967,315.911011 
	C538.399902,315.767670 546.117188,317.499603 553.583313,319.144104 
	C568.133301,322.348907 581.345276,329.242645 595.559082,333.309906 
	C599.783691,334.518799 603.741943,336.961426 607.542542,339.294373 
	C620.495544,347.245331 633.951294,354.513489 644.251831,366.149017 
	C646.532227,368.724976 649.741394,370.369598 652.416870,372.615051 
	C657.580933,376.948944 658.896057,383.953064 664.341858,388.145660 
	C671.058655,393.316711 675.525208,400.819427 679.998596,407.722900 
	C684.707153,414.989197 688.851257,422.856689 692.766968,430.736053 
	C696.712891,438.676300 698.880066,447.152863 701.926208,455.316956 
	C704.637146,462.582703 705.209534,470.587219 709.412476,477.305359 
	C710.290039,478.708038 709.289551,480.226257 709.232544,481.692688 
	C709.098328,485.148193 708.518616,488.663879 712.043030,491.192261 
	C714.062500,492.640991 714.207458,495.021515 712.850769,497.031281 
	C711.032776,499.724579 710.795837,502.680847 711.072083,505.661713 
	C711.883972,514.424133 709.293396,523.261719 711.736389,531.987549 
	C712.108215,533.315735 711.297180,534.519775 710.672302,535.732666 
	C708.870056,539.231262 706.948975,542.537964 708.502991,546.959351 
	C709.598083,550.075134 706.444702,552.718018 705.863159,555.864868 
	C703.259277,569.955933 698.416016,583.301453 692.485046,596.352417 
	C679.313965,625.335144 659.408630,648.793396 634.897766,668.754089 
	C619.635132,681.183472 602.583862,690.608154 584.303955,697.173401 
	C573.366211,701.101746 562.431396,705.855408 550.640442,707.291809 
	C544.716187,708.013428 538.731628,708.406250 533.442200,711.759460 
	C532.461853,712.380920 530.811584,712.208191 529.519897,712.034851 
	C518.249939,710.521729 506.982361,710.568054 495.697296,711.824402 
	C494.734497,711.931580 493.353729,712.057129 492.806671,711.521301 
	C488.872375,707.667664 484.359985,709.059692 479.723907,709.359436 
	C477.121643,709.527649 474.393463,707.836365 471.730103,706.958313 
	C459.620361,702.965820 446.951080,700.126221 435.574493,694.617859 
	C425.553864,689.765991 415.238129,684.928040 406.236023,678.031555 
	C404.757294,676.898682 403.768646,675.599121 404.437958,673.806213 
	C405.313629,671.460510 407.328949,672.003906 409.122040,672.454834 
	C419.772308,675.133118 429.400391,680.240112 439.334625,684.722229 
	C445.548370,687.525757 452.602631,688.683716 459.400726,689.908691 
	C465.246735,690.962158 471.146088,691.279907 477.056335,688.848999 
	C479.724518,687.751526 483.204102,687.660339 486.294250,689.263733 
	C487.540680,689.910400 489.201233,689.912292 490.676422,689.928711 
	C492.877747,689.953247 494.742737,689.157166 494.786804,686.588928 
	C494.832153,683.945618 493.157104,682.339783 490.685181,682.637878 
	C486.018707,683.200684 484.493439,681.396851 485.409698,676.967773 
	C485.779083,675.182007 485.175171,673.309265 483.703918,672.540100 
	C473.613892,667.265015 466.712860,657.697449 455.635956,653.341919 
	C445.560913,649.380310 436.606812,642.576660 428.164459,635.550903 
	C425.759125,633.549194 422.654449,632.466797 420.858673,629.611328 
	C419.820251,627.960144 419.056519,626.467529 419.760223,624.067871 
	C423.321014,625.502319 426.458862,627.276245 428.958740,630.262268 
	C430.758698,632.412170 432.549438,634.697144 435.344635,635.712585 
	C443.909912,638.823975 444.897614,638.391541 449.347137,630.361694 
	C451.525970,626.429688 453.822174,622.553284 456.259735,618.777222 
	C458.011627,616.063293 458.000732,613.810181 455.281250,611.883972 
	C449.311920,607.656006 443.320709,603.458862 437.325775,599.267273 
	C435.575256,598.043274 433.693695,598.157227 432.298309,599.626587 
	C427.490601,604.689209 422.765259,609.833557 418.129974,615.054688 
	C416.262604,617.158081 417.674072,620.260559 415.832642,624.082642 
	C414.085297,618.234253 408.566711,616.867188 406.422821,612.376465 
	C407.131104,611.886780 407.531342,611.482605 407.643433,611.550964 
	C412.787079,614.688354 415.587830,611.546692 418.622589,607.888977 
	C421.588013,604.314819 425.159424,601.247864 428.403961,597.899292 
	C430.701691,595.527893 430.791229,593.224548 428.729645,590.370667 
	C425.972900,586.554565 422.407867,583.542664 419.409943,579.990540 
	C418.668579,579.112183 417.769684,578.314026 417.236420,577.321411 
	C414.225159,571.716797 414.309845,571.788513 409.056793,575.026550 
	C404.104889,578.078979 399.056427,580.980469 393.979034,583.820618 
	C392.113678,584.864014 390.022614,585.846985 387.696991,582.862061 
	C394.640442,580.062561 399.868225,574.829285 406.537323,571.943542 
	C411.198334,569.926697 411.635651,567.000183 409.420197,562.780273 
	C407.009186,558.187744 404.985138,553.392090 402.133972,547.271606 
	C401.437500,551.612610 402.294769,555.414612 398.018219,555.914246 
	C395.567963,556.200500 394.537964,554.193787 393.616699,552.469727 
	C391.578064,548.654541 395.332031,547.441406 397.103149,545.637085 
	C396.823578,544.183594 395.703094,543.903015 395.150238,544.290894 
	C390.705170,547.409668 385.382050,545.817017 380.593628,547.123718 
	C377.163727,548.059753 375.855652,549.852112 376.446991,553.248352 
	C377.640259,560.101562 377.981720,567.184143 382.664886,572.994629 
	C383.615967,574.174683 384.611023,575.730286 384.360016,577.864441 
	C382.395050,578.053711 381.003326,576.497437 380.525513,575.382629 
	C374.561768,561.467896 363.469360,549.394470 364.980743,532.761963 
	C365.025818,532.265808 364.854431,531.711304 365.017334,531.270203 
	C367.755463,523.856140 363.211639,518.138367 360.513184,512.011963 
	C360.045929,510.951111 358.923889,509.855682 359.577393,508.815216 
	C363.907684,501.919922 361.182678,493.509369 364.787842,486.296631 
	C367.774628,480.321045 371.259155,474.881378 375.191589,469.636841 
	C375.648926,469.769379 376.106232,469.901917 376.563568,470.034454 
	C375.775360,473.876190 375.077850,477.739899 374.156006,481.549255 
	C373.765839,483.161346 372.921570,484.707855 373.275238,486.397858 
	C373.710571,488.478088 375.793304,489.683502 376.757080,487.922638 
	C381.175720,479.849670 389.364044,480.289764 396.556091,478.399567 
	C396.692017,478.363800 396.789917,478.183624 397.110382,477.870941 
	C396.291840,473.652374 391.346283,474.825378 388.824768,472.008942 
	C391.533356,470.161835 393.833588,471.460358 396.068237,472.022522 
	C404.004303,474.018982 405.245331,473.681335 408.320282,466.356842 
	C411.074219,459.796997 415.476074,454.050354 417.383392,447.039337 
	C417.814453,445.454895 420.807465,444.715912 422.260193,443.233948 
	C427.269165,438.124176 431.568634,432.348145 436.948669,427.574768 
	C439.550781,425.266052 438.317139,422.943878 436.457825,421.089691 
	C433.253357,417.893982 430.589874,414.303772 427.966400,410.654907 
	C427.093994,409.441559 426.003571,408.371368 426.374359,406.298676 
	C431.639526,406.828613 433.154724,411.691498 436.198944,414.583466 
	C437.494019,415.813782 438.238861,417.612244 439.289154,419.113770 
	C441.197632,421.842102 443.511658,422.139038 446.101135,420.090546 
	C450.967285,416.241058 456.480743,413.499084 461.951385,410.663147 
	C466.193542,408.464142 467.147461,405.405640 464.728485,401.348389 
	C461.539917,396.000397 458.964447,390.382324 458.096466,384.238373 
	C457.649078,381.071472 454.481171,380.475983 453.555542,378.134949 
	C453.630798,377.660889 453.565460,377.163483 453.750153,377.039917 
	C460.993073,372.194885 465.696350,365.660645 469.328217,357.618591 
	C471.829437,352.080109 475.963318,346.796051 481.432190,343.200317 
	C482.603363,342.430328 483.818451,341.635193 483.054840,340.050079 
	C482.296936,338.476929 481.024628,337.139618 479.091034,337.853760 
	C473.910187,339.767151 467.670593,338.172699 463.294098,342.983246 
	C461.836365,344.585602 459.165436,344.076996 457.024445,343.928558 
	C449.805908,343.428131 444.045471,346.645325 437.984100,350.117035 
	C430.955597,354.142700 423.036011,356.580566 414.972107,357.888824 
	C405.705475,359.392242 397.619904,362.478607 393.025543,371.412415 
	C390.829041,375.683502 386.171814,377.230621 382.658539,379.674805 
	C374.636444,385.255707 370.141418,393.200256 365.174713,401.014313 
	C361.979095,406.041931 359.676575,411.698700 354.927246,415.663208 
	C352.492859,417.695282 353.436981,421.029083 352.138977,423.521271 
	C350.147736,427.344421 348.149963,431.164154 346.095459,435.385223 
M459.668945,446.262573 
	C461.819092,447.298950 463.796600,446.961670 465.825409,445.764893 
	C471.124878,442.638824 476.426453,439.505646 481.849701,436.604309 
	C484.769867,435.042053 485.490662,432.778229 484.605225,429.951721 
	C482.968079,424.725616 481.075043,419.580170 479.347351,414.381622 
	C478.362030,411.416809 476.318604,410.567078 473.489685,411.338470 
	C464.527710,413.782074 456.676788,418.345093 449.463196,424.090607 
	C447.427826,425.711761 447.277374,427.160278 448.980103,429.506073 
	C452.766785,434.722778 457.116547,439.663818 458.404724,445.759796 
	C453.882568,442.619568 449.826385,439.044006 446.560028,434.522003 
	C442.979492,429.565033 441.571930,429.552002 437.201996,433.854797 
	C431.498688,439.470520 426.501678,445.667328 422.021698,452.306580 
	C420.184814,455.028748 420.719208,456.933441 423.391357,458.475861 
	C427.553009,460.878052 431.877625,463.002380 435.652374,466.044159 
	C440.176758,469.689880 442.084320,469.542236 446.087891,465.219269 
	C449.136078,461.927826 451.928680,458.384338 455.130188,455.254974 
	C457.820465,452.625305 459.384949,449.776154 459.668945,446.262573 
M630.083740,608.548218 
	C628.051025,611.417908 625.604248,613.846741 622.905396,616.131409 
	C616.841858,621.264587 610.487671,626.193665 605.181824,632.048645 
	C597.865295,640.122559 589.041016,645.186646 578.832886,648.259399 
	C576.704163,648.900146 575.096741,650.077148 573.455505,651.625977 
	C566.387146,658.296448 559.825928,665.899780 549.796936,668.215881 
	C544.671387,669.399658 541.054382,671.979126 538.861694,676.679932 
	C538.683228,678.464783 541.537903,678.907837 540.777649,680.947998 
	C538.843140,681.984375 531.222778,682.893677 529.798340,682.205078 
	C527.489502,681.089111 528.240173,678.755127 527.782043,676.911987 
	C527.235168,674.711609 525.585022,674.265808 523.639038,674.031982 
	C514.400757,672.922119 507.760986,676.394775 503.237518,684.752319 
	C502.555298,686.012817 502.250336,687.268555 503.176971,688.496582 
	C507.327332,693.996521 519.623962,698.437866 525.261414,692.204041 
	C528.766663,688.328064 533.838989,687.395020 537.583191,689.114380 
	C544.479187,692.281067 551.177551,691.439453 558.088196,690.904358 
	C560.239380,690.737793 562.444702,689.913696 564.508362,690.208557 
	C572.939331,691.413452 580.032959,689.725952 587.938232,685.534363 
	C595.018066,681.780396 601.619446,676.244507 610.084839,674.839050 
	C614.944153,674.032288 618.758728,670.663879 622.216614,667.256897 
	C626.972229,662.571350 632.031128,658.253662 637.344177,654.239319 
	C640.196106,652.084473 642.490112,649.493042 644.227661,646.436646 
	C645.746704,643.764648 647.993469,641.878113 650.163513,639.793579 
	C656.985779,633.240051 664.767334,627.485840 670.239807,619.767700 
	C676.781555,610.541504 680.471252,599.659485 684.905090,589.333191 
	C688.132874,581.815735 688.840454,573.253540 691.225464,565.323669 
	C692.804810,560.072571 694.258423,554.668030 692.241699,549.681580 
	C689.598145,543.145386 691.176636,537.503540 693.647217,531.670349 
	C694.360291,529.986755 695.211792,528.361755 695.920654,526.676575 
	C696.844238,524.480835 696.605469,522.479980 694.854736,520.705322 
	C693.937195,519.775269 692.535400,518.743042 692.449402,517.669128 
	C691.987183,511.898438 688.700867,511.332520 683.965149,513.114990 
	C683.037842,509.879517 681.727051,506.108246 686.370117,506.405457 
	C690.079529,506.642853 691.623352,506.031830 692.342712,502.597076 
	C693.141968,498.780945 692.478088,495.513824 688.755249,493.715942 
	C684.234619,491.532776 683.797913,489.830109 687.187988,485.876587 
	C690.761353,481.709259 693.674744,476.922394 692.845032,471.420990 
	C691.200439,460.517273 688.772644,449.731659 686.662170,438.898468 
	C686.631470,438.740723 686.495178,438.605927 686.449341,438.448425 
	C685.030396,433.575165 680.733398,430.053406 679.694519,425.150513 
	C677.997498,417.141876 674.016296,410.312897 670.001770,403.391144 
	C666.408936,397.196625 661.765869,391.736481 657.793518,385.815674 
	C654.680054,381.174927 648.875793,378.439178 644.834595,374.302612 
	C632.554260,361.732666 617.298462,353.538116 602.112427,345.455994 
	C591.299988,339.701569 579.299988,337.096985 566.899292,336.400208 
	C556.270203,335.802979 545.585938,336.656342 534.998596,334.982025 
	C530.753906,334.310760 526.459351,333.565369 522.171204,335.179993 
	C517.998535,336.751190 516.536072,339.678955 518.166443,343.754822 
	C520.232727,348.920471 533.676270,355.175781 539.828369,352.501434 
	C546.420654,349.635742 549.209106,353.095581 551.750183,357.504059 
	C554.674805,362.577942 558.486145,366.436829 563.589294,369.260956 
	C566.481506,370.861542 569.134949,372.922729 571.784058,374.924500 
	C573.859741,376.492920 574.685120,378.502472 572.789551,381.400726 
	C563.500732,380.109314 554.721863,376.393768 545.650391,373.920929 
	C541.858704,372.887268 539.956177,373.905090 538.345520,376.873108 
	C536.645752,380.005341 537.048279,382.921539 539.969299,385.695984 
	C533.436157,388.891754 536.874268,394.631012 535.846191,398.705414 
	C541.913452,402.333557 548.949707,402.483643 554.875000,405.967346 
	C559.340027,408.592499 561.480042,407.709076 564.205811,403.316132 
	C565.592102,401.081879 566.048523,398.026794 569.348694,396.605225 
	C569.646423,400.241577 567.976746,402.780579 566.852051,405.472260 
	C565.705750,408.215332 565.822876,410.316254 568.720093,412.279999 
	C574.217041,416.005859 579.879028,419.528442 584.843018,424.025055 
	C587.922729,426.814850 590.916077,426.561768 593.091736,422.766418 
	C595.213196,419.065674 598.466614,416.628632 602.883179,413.343903 
	C600.484863,418.786896 596.940796,421.574646 593.980530,424.806763 
	C592.003357,426.965485 590.879089,429.031158 593.366211,431.727783 
	C598.328918,437.108551 603.179993,442.595917 607.946777,448.151215 
	C609.257568,449.678833 610.397888,450.174377 612.198364,449.156677 
	C617.395569,446.219208 622.666382,443.410004 627.826477,440.409729 
	C629.807312,439.257965 631.709167,438.000244 632.360840,435.392578 
	C633.297424,431.644958 635.076477,431.344177 638.215149,433.757812 
	C640.915161,435.834167 641.290100,439.186432 643.060181,441.792542 
	C647.135437,447.792480 651.751526,453.390350 654.205750,460.551422 
	C657.212402,469.324707 658.818298,478.618561 663.458313,486.826050 
	C664.598938,488.843689 665.143555,491.520905 667.481506,492.333435 
	C671.462280,493.716888 672.205688,496.582062 672.027466,500.191803 
	C671.934326,502.079468 672.685120,503.740784 673.449402,505.432800 
	C676.450134,512.076721 677.889832,518.486023 672.835510,525.149719 
	C669.993469,528.896729 668.763489,533.802246 670.653992,538.461304 
	C672.689880,543.478699 670.772034,546.670105 667.061157,549.673157 
	C662.093994,553.693054 658.634399,558.597229 656.204285,564.740540 
	C653.382690,571.873413 650.812317,579.183228 645.709290,585.461731 
	C642.523682,589.381287 638.198547,592.689392 636.412415,597.664062 
	C635.041565,601.482361 632.927917,604.799316 630.083740,608.548218 
M590.542236,599.329773 
	C593.497864,604.996704 598.568115,608.950623 602.352051,613.929443 
	C605.860413,618.545471 607.862915,618.885559 612.486450,615.175171 
	C622.882446,606.832153 630.892334,596.682678 636.697388,584.665222 
	C639.947205,577.937561 644.230103,571.742249 647.129028,564.799500 
	C649.934204,558.081299 649.227173,556.386780 642.521545,554.123657 
	C636.867493,552.215332 630.782654,552.011536 625.276794,549.492126 
	C623.200684,548.542114 622.055664,549.854431 621.188721,551.875427 
	C618.962158,557.065979 616.618530,562.218567 614.048767,567.246826 
	C609.995300,575.178040 611.538269,576.216675 618.580200,579.718323 
	C621.429626,581.135193 624.622375,582.347351 625.171082,586.268433 
	C620.966064,586.729858 620.718018,586.637085 617.119141,583.399170 
	C610.662292,577.589966 608.930786,577.709106 603.260437,584.113953 
	C601.386414,586.230774 599.183594,588.062439 597.368042,590.223572 
	C595.043030,592.991272 591.654358,594.911316 590.542236,599.329773 
M529.745300,638.425110 
	C528.308655,635.899841 530.329224,632.044006 526.957825,630.359314 
	C519.404602,626.585144 511.409088,626.000061 503.290619,627.993347 
	C500.895508,628.581360 498.841766,629.068237 496.759247,627.349670 
	C495.265686,626.117126 493.791931,626.137634 492.429840,627.756409 
	C489.740936,630.951904 489.438843,639.172302 492.146027,642.502686 
	C488.605682,644.444763 487.235870,647.522583 487.569031,651.602478 
	C493.434296,652.941406 498.991058,655.960388 505.012482,654.448303 
	C510.190552,653.148010 515.137268,653.259705 520.223572,654.445984 
	C523.024231,655.099243 525.800598,654.987793 528.484985,653.667969 
	C530.951111,652.455566 531.830811,650.206604 530.247131,648.407349 
	C527.444397,645.222961 528.644287,642.336243 529.745300,638.425110 
M564.099243,515.503662 
	C560.533325,521.127380 561.479187,528.108154 558.530457,533.965271 
	C557.625671,535.762573 558.747681,537.832336 560.739136,538.367920 
	C566.467651,539.908813 571.273987,543.262329 576.459045,545.875061 
	C579.801086,547.559082 582.330444,546.529114 583.651978,543.079712 
	C584.540100,540.761414 584.874512,538.224060 585.824768,535.937683 
	C589.545837,526.984131 590.318054,517.649475 589.690613,508.116730 
	C589.583069,506.483734 589.403992,504.692230 586.741028,504.663605 
	C586.013428,509.203186 582.256897,508.736145 579.061035,509.515411 
	C578.140747,507.498688 579.535706,503.992676 576.133667,504.444641 
	C571.969177,504.997894 567.498413,504.800659 563.588440,507.433472 
	C564.137329,509.935272 565.521179,512.262268 564.099243,515.503662 
M641.208252,448.399658 
	C640.047791,446.582397 638.803223,444.812469 637.746643,442.936707 
	C636.186768,440.167572 634.157776,439.725006 631.540039,441.384094 
	C626.501831,444.577209 621.392700,447.664795 616.449707,450.998993 
	C614.181091,452.529297 611.937256,455.000092 613.654358,457.694183 
	C617.384705,463.547119 618.248962,470.499878 621.559448,476.455688 
	C622.890137,478.849670 624.364441,479.969482 627.579041,479.161987 
	C632.715210,477.871796 637.543396,475.318787 642.918579,475.090118 
	C647.531494,474.893860 648.806213,472.180054 647.726685,468.408020 
	C645.864014,461.899719 645.027710,455.047119 641.208252,448.399658 
M596.957764,613.538452 
	C594.389404,610.727783 591.443970,608.169312 589.351074,605.040588 
	C586.901611,601.379028 584.573792,602.136353 582.016541,604.362000 
	C577.242371,608.517090 571.894165,611.807556 566.410889,614.871704 
	C563.507568,616.494202 562.778076,618.515503 564.208374,621.432678 
	C566.761169,626.639038 569.447754,631.765320 571.539307,637.209290 
	C572.627380,640.041748 575.402832,641.615601 578.515503,640.115051 
	C585.376770,636.807434 592.176941,633.414978 597.584656,627.742249 
	C604.350525,620.644653 604.466003,620.754700 596.957764,613.538452 
M489.644714,400.127716 
	C492.702667,400.697052 495.646759,401.010345 496.943909,397.184174 
	C498.656647,392.132202 497.152161,387.988922 492.464294,384.931458 
	C492.600983,383.517365 493.496552,382.523010 494.352570,381.500702 
	C496.069397,379.450378 495.882690,377.230621 494.919342,374.941467 
	C493.909363,372.541473 491.893219,373.528412 490.168243,373.510162 
	C480.791260,373.410858 471.862091,375.452271 463.209259,378.978180 
	C460.121155,380.236511 459.872955,382.296814 460.957489,384.998871 
	C462.992340,390.068451 465.290741,395.011841 467.066406,400.212769 
	C468.792664,405.269196 471.983154,405.810272 477.523651,403.567810 
	C481.247406,402.060638 485.175507,401.058289 489.644714,400.127716 
M582.997375,441.517487 
	C584.169006,440.332855 585.248901,439.036255 586.530884,437.986481 
	C589.369263,435.662292 588.773804,433.290985 586.495911,431.227264 
	C579.793823,425.155304 572.259521,420.270721 564.107117,416.379486 
	C561.423462,415.098541 559.289551,415.910980 557.996155,418.751556 
	C555.445496,424.353424 552.838684,429.929962 550.220825,435.500854 
	C549.322388,437.412750 549.298401,439.138489 551.350586,440.208405 
	C557.445679,443.386383 562.545410,447.992310 568.185730,451.820343 
	C570.403564,453.325623 572.286560,452.909027 573.985657,451.145081 
	C576.870911,448.149841 579.676514,445.077972 582.997375,441.517487 
M632.058655,512.801819 
	C637.706543,512.814636 643.355774,512.757263 649.001831,512.866211 
	C652.466309,512.932922 654.379333,511.279358 654.683594,507.972015 
	C655.540222,498.660553 652.635010,489.813843 650.998230,480.825928 
	C650.714539,479.268188 649.429810,476.782288 647.216919,477.751801 
	C640.271851,480.794586 632.131348,480.280640 625.805237,485.063873 
	C625.722229,489.100586 624.159851,493.427216 627.587646,496.849915 
	C630.150940,499.409485 630.227112,501.625458 628.185059,504.717621 
	C625.832397,508.280182 627.123718,510.990723 632.058655,512.801819 
M456.911591,501.588226 
	C462.736725,503.616852 466.052460,501.744324 467.507812,495.571594 
	C468.369476,491.916931 470.148590,488.456604 472.487762,485.334167 
	C474.557709,482.571136 474.166412,480.204681 471.466431,477.526703 
	C467.515594,473.608124 462.055389,471.817139 458.420929,467.660919 
	C455.727600,464.580902 453.896729,465.064728 451.228363,467.952454 
	C444.314178,475.435028 442.097717,485.094360 438.466736,494.094025 
	C437.620972,496.190338 438.950928,497.248260 441.244293,497.716095 
	C446.241760,498.735504 451.160706,500.140015 456.911591,501.588226 
M466.386322,534.748047 
	C460.329895,535.963745 454.809296,538.750427 449.021118,540.748657 
	C444.101288,542.447083 443.091217,545.411316 445.578125,550.126770 
	C449.575043,557.705505 455.687653,563.639709 461.548279,569.702087 
	C464.481720,572.736450 467.799225,572.355408 470.474884,568.881775 
	C473.707581,564.684998 476.900635,560.457520 480.154510,556.277344 
	C481.962585,553.954590 482.062378,552.061035 479.683655,549.851746 
	C475.676086,546.129456 472.096558,541.992371 469.706604,536.963318 
	C469.199799,535.896790 468.253876,535.163330 466.386322,534.748047 
M532.453918,451.006134 
	C531.410645,454.506134 530.290588,457.985596 529.348572,461.512634 
	C528.607178,464.288574 529.468689,466.420837 532.328857,467.490082 
	C537.857605,469.556915 542.437683,473.188690 546.872070,476.881348 
	C548.997864,478.651550 550.117004,478.385651 551.833679,476.720093 
	C555.760193,472.910461 558.952209,468.452759 563.094849,464.781189 
	C565.898804,462.296021 565.098755,458.086670 562.614502,455.798340 
	C558.255310,451.782928 553.988647,447.551910 548.711914,444.581482 
	C538.792969,438.997711 536.980408,439.592224 532.453918,451.006134 
M465.442413,453.947601 
	C464.218445,455.060242 463.017456,456.199524 461.765228,457.279388 
	C459.786255,458.985901 459.348145,461.134338 461.115692,462.941071 
	C466.060516,467.995636 471.241394,472.819214 476.383759,477.786621 
	C482.480164,473.430328 488.078125,469.324341 494.601959,466.738983 
	C497.182159,465.716461 497.881165,463.637695 496.951477,461.021637 
	C494.843842,455.091034 492.740601,449.158844 490.640747,443.225464 
	C489.818451,440.901825 488.352814,440.253784 485.976349,441.085571 
	C478.381744,443.743561 471.268036,447.143158 465.442413,453.947601 
M591.947510,577.579590 
	C594.321716,579.563354 596.936768,582.885315 599.882874,579.226929 
	C605.830505,571.841309 610.324890,563.494568 614.006653,554.744507 
	C614.886475,552.653625 613.998230,551.164062 611.963257,550.401794 
	C605.919800,548.138123 599.872009,545.884521 593.796936,543.707764 
	C591.497742,542.883911 589.595947,543.298157 588.454651,545.810730 
	C585.839844,551.567078 582.665588,557.018921 579.202515,562.303955 
	C577.743469,564.530579 578.252319,566.213196 580.324219,567.859131 
	C584.089844,570.850708 587.694092,574.045410 591.947510,577.579590 
M483.169434,558.573486 
	C478.988495,562.486755 476.358429,567.558289 473.191803,572.207825 
	C471.801147,574.249756 471.075684,576.894104 473.978882,578.748230 
	C482.487488,584.182068 491.949738,586.979248 501.779968,588.698730 
	C503.510925,589.001526 505.328552,588.670105 505.368652,586.358582 
	C505.481171,579.873901 508.118561,573.847168 508.640747,567.418579 
	C508.904236,564.174744 508.228851,562.217590 504.799011,561.804199 
	C498.847992,561.087036 493.248993,559.318298 488.105621,556.196533 
	C485.779785,554.784851 484.396118,555.680115 483.169434,558.573486 
M451.397980,596.765198 
	C454.132874,593.228088 456.936890,589.741821 459.586029,586.141663 
	C463.315887,581.072815 462.957245,579.208069 458.706757,574.630859 
	C455.097839,570.744568 450.609833,567.713684 447.693909,563.154480 
	C446.605011,561.451904 445.061646,560.510986 443.074493,561.878967 
	C437.901855,565.439758 432.781952,569.077393 427.595551,572.617920 
	C424.585999,574.672302 424.416840,577.207092 426.472534,579.844727 
	C431.787872,586.664734 437.548981,592.995117 444.937866,597.772217 
	C447.506134,599.432678 449.073578,599.229309 451.397980,596.765198 
M522.700928,436.859344 
	C513.290466,433.810150 504.494720,435.829559 496.411835,439.551025 
	C497.001099,448.242493 498.150360,456.357422 501.435516,464.580048 
	C503.205200,464.237366 505.887299,464.537048 506.881104,463.382904 
	C511.050873,458.540466 514.486877,461.070709 518.503418,463.501678 
	C522.895325,466.159851 525.810425,464.816254 527.166992,459.940399 
	C528.277466,455.948853 529.257629,451.910492 530.063232,447.846832 
	C531.690613,439.637665 531.625488,439.624756 522.700928,436.859344 
M597.493408,443.936981 
	C595.775513,440.839661 593.877258,438.475739 590.241028,441.819000 
	C586.343567,445.402435 582.478333,449.029327 578.434937,452.442841 
	C575.587585,454.846649 574.637085,457.331329 576.839661,460.621277 
	C580.248657,465.713257 583.768372,470.730469 586.408447,476.305756 
	C587.506287,478.624176 589.463196,479.353333 591.754578,477.795105 
	C596.465027,474.591736 601.882507,472.897827 606.993652,470.554504 
	C612.185486,468.174103 612.978455,466.431366 610.141113,461.401459 
	C606.714722,455.327423 602.577881,449.718414 597.493408,443.936981 
M539.433167,558.120117 
	C542.930420,564.141174 546.251343,570.254028 550.797668,575.624634 
	C552.304626,577.404846 553.489075,577.913025 555.359314,576.654053 
	C563.296936,571.310913 570.050842,564.702637 575.735718,557.047424 
	C577.735901,554.354004 577.366516,551.801147 574.023560,550.064270 
	C568.884521,547.394165 563.932922,544.410156 559.204895,541.038818 
	C556.629150,539.202209 554.554932,540.308105 552.891907,542.715027 
	C550.026062,546.863037 546.455750,550.304016 542.276611,553.138489 
	C540.778259,554.154724 539.156311,555.198853 539.433167,558.120117 
M428.231293,533.592590 
	C423.580139,536.926147 417.690643,535.744019 412.624756,537.884888 
	C409.797089,539.079956 407.852692,539.786560 408.677002,543.307617 
	C410.635376,551.672607 413.445038,559.623108 418.316589,566.834961 
	C420.513977,570.087952 422.697510,570.437988 425.772400,568.510193 
	C430.393951,565.612793 434.499939,561.936401 439.621613,559.775452 
	C442.560913,558.535278 443.122864,556.303650 441.671448,553.237854 
	C438.921814,547.429626 434.781677,542.317078 433.174713,535.926575 
	C432.681763,533.966431 431.112701,532.963135 428.231293,533.592590 
M538.268494,619.295654 
	C543.166931,617.891052 548.127625,616.667175 552.939026,615.009827 
	C555.559875,614.107056 558.421875,613.118530 560.131531,610.742859 
	C562.167297,607.914062 558.054810,607.560242 557.738403,605.603699 
	C557.686279,605.281433 557.738281,604.943787 557.718201,604.614685 
	C557.386780,599.190979 554.563965,594.575989 552.784973,589.628662 
	C551.756165,586.767517 549.856873,586.012329 546.908264,587.571411 
	C541.098206,590.643250 535.215454,593.601074 528.451721,594.090881 
	C526.664734,594.220215 524.591858,595.594238 525.526123,597.234497 
	C528.320496,602.140625 524.328613,608.222412 528.561707,612.696655 
	C526.878174,621.177917 532.176147,620.330688 538.268494,619.295654 
M590.258118,582.215576 
	C586.144653,578.647156 581.356567,575.853088 578.303345,571.078857 
	C576.418396,568.131531 573.781494,567.667603 571.317505,570.494934 
	C567.009033,575.438843 561.914185,579.378967 556.400452,582.856567 
	C553.823242,584.482056 553.429443,586.806946 555.059509,589.299377 
	C558.151001,594.026306 561.482422,598.599426 564.484070,603.380920 
	C566.599060,606.750000 568.754089,607.372620 572.232483,605.118774 
	C579.094421,600.672485 585.466553,595.702454 591.211304,589.871033 
	C593.924988,587.116516 594.252075,584.862244 590.258118,582.215576 
M549.256470,410.492249 
	C542.386047,406.507935 534.212524,407.394653 527.022583,404.568359 
	C526.051270,404.186554 524.932495,404.714325 524.535278,405.735901 
	C522.397522,411.233582 519.772583,416.649139 520.186523,422.765289 
	C520.505676,427.480530 524.482788,432.338135 528.479919,432.720337 
	C533.317749,433.182953 537.875244,434.608307 542.409485,436.154144 
	C544.469482,436.856415 545.859924,436.692352 546.860962,434.537567 
	C549.230469,429.437317 551.844971,424.448273 554.125366,419.309998 
	C556.443787,414.086090 555.721069,412.809021 549.256470,410.492249 
M537.993591,562.553528 
	C536.786621,559.914673 534.567810,558.838684 531.895752,559.340088 
	C527.668030,560.133423 523.384827,560.944946 519.355469,562.390686 
	C515.543640,563.758423 512.591248,566.007996 512.956177,571.118958 
	C513.271545,575.536255 512.562073,580.049988 512.068787,584.494873 
	C511.601501,588.705688 513.303772,590.108582 517.439453,589.903076 
	C526.857239,589.435120 535.492615,586.017517 544.270569,583.154358 
	C546.498840,582.427673 547.181396,580.747803 545.555054,578.446899 
	C542.278503,573.811523 540.366455,568.479675 537.993591,562.553528 
M533.591675,626.509155 
	C531.027588,632.854248 532.018066,638.766296 535.803223,644.314819 
	C536.412048,645.207275 536.486511,646.027222 536.252686,647.098206 
	C535.228394,651.789062 536.409363,653.551941 540.759644,652.661011 
	C549.166260,650.939270 557.573547,648.958130 565.345276,645.159973 
	C568.279297,643.726135 569.938904,641.185303 568.144714,637.761780 
	C564.786011,631.353088 561.331543,624.994568 557.795410,618.388245 
	C550.262085,622.735718 542.117981,624.173889 533.591675,626.509155 
M483.398529,614.779541 
	C488.828979,609.395264 487.564423,601.483215 490.718445,595.217163 
	C491.209198,594.242188 490.252350,592.865051 489.036285,592.470276 
	C482.846283,590.460571 477.444885,586.808411 471.555786,584.174377 
	C468.366486,582.747925 465.725769,583.074707 463.713379,586.077209 
	C461.311157,589.661377 458.999847,593.306580 456.592102,596.886963 
	C453.448273,601.562134 454.255310,603.679382 458.404999,607.290833 
	C464.577332,612.662659 472.849945,613.003479 479.509735,617.047546 
	C481.158600,618.048767 482.318176,616.916504 483.398529,614.779541 
M515.185547,530.640320 
	C508.369049,529.591370 505.359497,532.675049 503.509949,539.270142 
	C501.996429,544.666931 501.238037,550.142456 499.762238,555.392273 
	C501.178955,557.001221 503.003448,557.361389 504.443817,556.598633 
	C507.015533,555.236816 509.505402,555.866211 512.134399,555.824524 
	C518.879028,555.717529 525.720581,557.635315 532.361206,554.063232 
	C536.808472,551.671021 537.862183,550.553101 534.969360,546.257568 
	C532.844666,543.102661 530.651428,540.016418 528.844727,536.658386 
	C524.670776,528.900269 524.647827,528.912598 515.185547,530.640320 
M436.241211,508.994080 
	C434.869263,517.027527 438.225006,524.509888 439.043793,532.292847 
	C439.465118,536.297363 444.314148,538.640198 448.046417,537.178528 
	C451.584045,535.793030 455.001373,534.055298 458.609253,532.903625 
	C465.712067,530.636169 466.470551,529.413452 464.507660,522.147217 
	C463.896881,519.886169 463.094635,517.818176 461.688293,515.856384 
	C460.335938,513.969849 459.576019,511.632446 461.421204,509.407806 
	C462.570770,508.021881 463.680542,506.212006 461.213837,505.525238 
	C458.849365,504.866882 454.282166,503.099792 454.118866,505.502075 
	C453.860962,509.296478 449.180786,510.084106 450.509613,514.254883 
	C448.241943,513.510193 446.530090,512.299011 444.883392,513.665100 
	C442.708405,510.023315 445.181122,507.411072 446.286865,504.676270 
	C438.485870,501.309204 437.653595,501.617493 436.241211,508.994080 
M475.411194,539.025574 
	C478.981720,543.890198 483.172729,548.111572 488.408997,551.170776 
	C490.095734,552.156189 492.015045,553.346069 493.546631,550.792847 
	C496.610107,545.686096 499.895294,540.710083 502.057343,535.101074 
	C502.957886,532.764832 503.250671,530.462952 501.773438,528.451355 
	C499.492126,525.344788 496.914337,522.455933 494.887695,519.991943 
	C492.638184,519.745544 492.972748,522.420227 490.810516,521.684509 
	C491.492615,519.321228 490.930298,516.453308 488.093506,517.955872 
	C482.725830,520.798767 476.560577,520.364197 471.245453,523.016418 
	C469.751984,523.761597 469.094055,524.680176 469.840302,526.113831 
	C471.906067,530.082397 471.987274,534.867798 475.411194,539.025574 
M487.892914,513.504517 
	C488.384155,513.425049 488.884216,513.240845 489.365295,513.281555 
	C498.710419,514.072205 493.777649,504.130493 498.437378,501.134399 
	C500.391785,499.877777 498.943665,497.498474 497.450836,495.981598 
	C493.493652,491.960632 489.558441,487.916504 485.532074,483.965637 
	C482.716644,481.203003 479.582550,481.328674 477.408783,484.447693 
	C471.895477,492.358582 466.916290,500.516541 469.256317,510.962128 
	C469.942444,514.024902 471.431366,515.594604 474.515442,515.910522 
	C478.950287,516.364868 483.061401,515.199646 487.892914,513.504517 
M606.245544,533.822021 
	C607.846497,532.039001 610.446167,531.421448 611.341003,528.791687 
	C614.618774,532.851440 619.569336,533.958313 620.447388,531.047791 
	C621.904724,526.216858 624.108276,521.398804 622.899597,516.055847 
	C622.516479,514.362305 621.956055,513.060974 620.000183,513.587158 
	C613.737549,515.272095 607.438354,514.356384 601.156128,513.946228 
	C597.475403,513.705872 595.779663,514.812805 596.733704,518.800537 
	C597.158386,520.575989 597.005676,522.654053 595.818298,524.089600 
	C592.674683,527.890198 595.365967,532.915283 592.851196,536.925720 
	C592.079834,538.155762 594.037537,539.879028 595.462646,539.987366 
	C601.357971,540.435547 606.295410,543.855591 611.940674,544.990845 
	C613.485046,545.301392 615.467407,546.735046 616.429321,544.762695 
	C617.628235,542.304688 619.627991,539.933289 619.015137,536.886841 
	C618.737854,535.508240 617.636658,535.297485 616.280151,535.477295 
	C612.960327,535.917480 609.770996,535.001953 606.245544,533.822021 
M469.125336,628.147400 
	C471.074554,628.543945 473.002136,629.084351 474.961273,628.077637 
	C477.538055,626.753357 479.517059,627.183289 480.503357,631.658569 
	C481.564514,626.492126 485.249115,630.006165 487.051056,627.779114 
	C487.143646,625.809021 485.864075,624.702454 484.174377,624.397522 
	C477.562439,623.204407 471.858154,619.745117 465.806000,617.181946 
	C462.753479,615.889221 460.330322,616.377869 459.159943,619.267334 
	C456.783569,625.134155 453.623962,630.562500 450.674286,636.120361 
	C449.596588,638.150940 449.418274,640.688232 452.003357,641.681213 
	C460.035156,644.766235 467.747742,648.860535 476.328979,650.292236 
	C480.752167,651.030334 484.016113,647.214111 483.708466,642.081909 
	C475.756714,640.949036 472.813446,633.476990 467.434479,628.995544 
	C467.795502,628.715271 468.156555,628.434998 469.125336,628.147400 
M517.533264,418.734467 
	C517.661682,415.440704 515.799133,413.100525 513.706299,410.911011 
	C510.408478,407.460907 506.080475,410.245636 502.444916,409.321289 
	C501.081329,404.277832 499.527466,403.616943 494.721436,405.881104 
	C493.295990,406.552612 492.322174,407.867737 490.260376,407.452942 
	C484.972015,406.389160 482.217834,409.463379 483.638763,414.746887 
	C484.751617,418.884827 486.179840,422.912659 487.874390,426.893799 
	C490.068329,432.048370 495.314392,434.494720 499.941925,431.118347 
	C504.077667,428.100861 507.889618,427.438507 512.363770,429.845184 
	C515.410522,431.483978 516.651306,429.945770 516.890808,426.983612 
	C517.091370,424.503571 517.287170,422.023102 517.533264,418.734467 
M513.020630,614.059082 
	C505.404572,615.614197 498.286255,615.278564 493.258575,608.185608 
	C488.208405,614.275757 488.812927,618.652466 495.420471,620.212280 
	C503.170990,622.041931 511.120270,623.925842 519.304749,622.734558 
	C521.426147,622.425842 522.427856,621.413086 523.119568,619.441711 
	C524.696472,614.947510 523.601501,610.547363 523.069824,606.104431 
	C522.283813,599.536133 516.982056,595.265198 510.536438,596.361450 
	C506.807037,596.995789 503.489868,597.119507 500.076294,594.825745 
	C497.354248,592.996704 494.264679,592.536621 493.848297,597.467163 
	C493.753387,598.591431 493.038055,599.649109 492.750977,600.773926 
	C491.741852,604.727661 494.938416,608.745789 498.986023,608.141541 
	C504.838287,607.267761 510.895599,609.675781 516.611389,606.893799 
	C517.383606,606.518005 518.233887,607.003906 518.646240,608.384521 
	C516.441956,609.564514 516.515442,612.859131 513.020630,614.059082 
M555.061279,528.665649 
	C555.623962,526.453674 557.899292,524.449768 555.843628,521.513000 
	C551.971741,524.873230 548.965698,522.749329 545.623657,520.507690 
	C542.805298,518.617310 544.197266,516.557312 544.555420,514.688965 
	C544.098145,513.198730 542.425842,513.905823 542.076355,512.981445 
	C541.164246,510.569000 539.968323,508.667694 537.008545,509.709564 
	C534.087280,510.737854 531.143738,511.497131 530.769653,515.706848 
	C530.472229,519.055298 529.678955,522.532471 526.778503,525.082886 
	C524.856079,526.773254 525.943298,528.798767 527.258789,530.404602 
	C530.830566,534.764648 534.300354,539.233826 538.181396,543.306274 
	C540.922607,546.182739 544.020325,546.608826 547.112732,543.095642 
	C550.683960,539.038452 553.645996,534.747681 555.061279,528.665649 
M491.939880,482.595184 
	C494.356995,486.143097 497.259460,489.466217 499.039124,493.309326 
	C500.488373,496.438873 502.034271,497.401306 505.109741,496.307220 
	C507.941376,495.299866 510.827484,494.628815 513.869385,494.753815 
	C515.031311,494.801605 516.311462,494.753052 517.106079,493.785553 
	C521.448853,488.497894 522.240417,482.161865 523.055725,475.467407 
	C520.179382,475.493317 517.813599,479.355042 515.976135,475.746826 
	C513.236816,470.367767 509.648010,470.946350 505.388062,473.457489 
	C504.684326,473.872314 503.788055,473.895477 503.102325,473.187622 
	C502.217834,471.337494 505.543457,471.395233 504.514801,469.044891 
	C499.102234,469.889832 493.952423,471.869812 488.958435,474.277069 
	C487.556488,474.952850 487.322235,476.345764 488.222839,477.675110 
	C489.242706,479.180420 490.375305,480.609375 491.939880,482.595184 
M632.519348,531.065979 
	C627.009949,529.044861 624.666443,530.931519 625.705322,536.655518 
	C625.882446,537.631470 626.446228,538.552246 625.787964,539.486938 
	C623.098816,543.305176 626.000610,544.728210 628.749390,545.521240 
	C634.579529,547.203247 640.684143,547.922791 646.130371,550.904968 
	C648.142273,552.006653 649.894958,551.196411 650.463440,549.090393 
	C652.223145,542.570923 653.874634,535.999390 654.285156,529.231323 
	C654.455017,526.429749 656.248657,523.353394 653.331543,520.628052 
	C651.206787,521.124146 649.042664,521.629456 646.716248,522.172607 
	C647.604919,527.207886 646.762451,530.821594 640.996399,531.290100 
	C638.460022,531.496216 638.076355,533.601685 637.901855,535.712463 
	C637.701355,538.138245 636.768555,539.774048 634.005615,539.294495 
	C632.439026,536.575928 636.739624,533.585388 632.519348,531.065979 
M608.850586,490.443939 
	C604.354126,489.751923 599.574951,490.588959 595.646484,487.065918 
	C594.050354,485.634491 591.147583,486.712891 592.418457,488.954041 
	C594.572021,492.751770 593.168457,496.856873 594.590698,500.413879 
	C595.938477,503.784668 595.807983,509.157440 601.490417,508.713226 
	C607.419434,508.249756 613.420166,508.366821 619.269287,506.899170 
	C621.438965,506.354767 622.015137,505.473785 622.048340,503.136627 
	C622.136719,496.909851 618.038574,491.733215 618.024414,485.591431 
	C618.023926,485.390442 617.297852,485.191162 616.348389,484.701355 
	C617.088806,490.413849 614.056030,491.388611 608.850586,490.443939 
M535.143860,473.194397 
	C533.097046,472.780823 531.549988,473.434357 530.607849,475.342072 
	C528.484375,479.641998 525.564453,483.463470 523.736206,487.984772 
	C520.539612,495.890137 520.348267,495.904694 528.001099,500.092163 
	C531.390015,493.222473 531.390015,493.222473 537.099548,494.839325 
	C538.876465,492.030273 540.317261,488.627350 544.755981,488.636292 
	C545.893005,491.722321 546.005737,494.656586 544.349792,498.056274 
	C548.360291,497.210144 551.142761,499.425964 554.311707,500.014893 
	C555.278259,491.986877 546.073792,478.881378 535.143860,473.194397 
M564.776550,491.507324 
	C562.478760,492.605652 560.672852,491.769714 559.947327,489.598267 
	C558.996582,486.752899 556.166138,484.202637 558.014587,480.779175 
	C560.286804,476.570892 566.707153,473.783722 571.526733,474.578247 
	C573.178650,474.850586 574.004150,475.571747 573.947571,477.107147 
	C573.742737,482.666992 579.671509,484.035339 581.518677,488.223541 
	C581.865662,489.010254 583.309631,488.906067 584.474121,487.695953 
	C582.601807,481.043579 580.106873,474.544708 575.597534,468.830048 
	C573.176880,465.762482 570.824646,465.587921 567.958740,467.744843 
	C563.727844,470.928955 559.486633,474.104370 555.364197,477.425507 
	C553.011536,479.320923 552.383240,481.810913 554.036926,484.530945 
	C556.903442,489.245880 558.831787,494.356506 560.581116,499.554840 
	C561.282837,501.640137 562.687744,503.468903 564.967590,502.425476 
	C567.654541,501.195679 570.403992,501.144135 573.171204,500.754944 
	C575.780518,500.387970 576.670532,498.578583 576.852661,496.164429 
	C577.051880,493.523132 575.593994,492.673767 573.273254,492.454681 
	C570.645813,492.206604 568.185730,490.782532 564.776550,491.507324 
M432.557343,494.905945 
	C432.294495,493.974426 431.347412,493.006775 432.011963,492.092133 
	C434.900909,488.115845 435.222198,483.162323 437.215851,478.837830 
	C439.507263,473.867554 438.463715,472.107269 433.322083,469.854889 
	C429.402008,468.137634 425.346741,466.421661 421.947754,463.901123 
	C417.818146,460.838806 415.855347,462.779938 414.306671,466.240082 
	C412.345337,470.622162 410.204193,475.032196 409.122131,479.659698 
	C408.448975,482.538574 407.045563,485.698090 408.058563,489.231140 
	C411.016541,487.452576 410.906921,484.042328 413.132111,482.272339 
	C414.038422,483.976746 414.827820,484.970215 415.963837,482.498138 
	C416.999939,480.243378 418.032166,477.924957 419.477173,475.932770 
	C422.526917,471.728180 426.016266,474.086884 429.087769,475.905914 
	C431.780823,477.500793 434.973236,478.850861 432.266418,483.468811 
	C430.242615,486.921570 426.599945,490.263000 428.520142,495.233856 
	C428.936035,496.310547 428.818054,497.706085 430.176819,497.939178 
	C431.870178,498.229675 432.464111,496.986084 432.557343,494.905945 
M507.884338,389.922913 
	C504.303192,390.710449 503.714813,386.870514 501.494873,385.462646 
	C498.771790,391.956451 501.204102,398.170166 506.462616,398.729797 
	C514.088806,399.541412 521.579590,397.790619 529.150085,397.544769 
	C530.297180,397.507538 530.763000,396.536011 531.212830,395.620575 
	C533.170166,391.636963 530.321106,388.042267 525.425659,387.811188 
	C519.701050,387.540955 514.493591,390.772522 507.884338,389.922913 
M376.918304,521.836853 
	C374.915619,520.859924 372.733887,517.567139 370.802429,521.260071 
	C369.311096,524.111572 366.415497,527.279846 370.490997,530.893860 
	C372.320770,532.516479 372.930084,535.231445 372.702362,538.214661 
	C372.301849,543.461853 375.370880,545.293884 380.032928,543.218628 
	C380.635010,542.950623 381.245209,542.681824 381.876892,542.502380 
	C387.354126,540.946655 389.003448,537.159302 384.901611,533.415161 
	C381.325348,530.150818 379.156006,526.503296 376.918304,521.836853 
M533.677917,380.245178 
	C535.155945,374.190552 534.107422,373.465088 528.492371,371.683411 
	C522.722168,369.852478 518.175476,373.262665 513.014954,373.622620 
	C510.892883,373.770660 509.955597,374.552338 510.048920,376.635437 
	C510.152161,378.939667 511.455719,380.196655 513.615417,379.651428 
	C519.096008,378.267822 523.834900,380.047882 528.009338,383.158569 
	C531.592773,385.828918 532.570801,383.984894 533.677917,380.245178 
M380.342896,513.275940 
	C382.325470,513.131042 384.308563,512.992493 386.290558,512.840149 
	C394.099823,512.239990 394.094727,512.240112 396.517548,519.396179 
	C396.578918,519.577515 397.060364,519.616577 397.345764,519.721985 
	C400.161774,512.231873 399.214111,510.602814 391.397552,509.909546 
	C387.445892,509.559082 383.462341,509.197968 379.511780,509.343842 
	C377.156097,509.430786 372.875397,507.683411 372.805206,511.065460 
	C372.720245,515.161072 377.068634,513.025085 380.342896,513.275940 
M616.777710,479.479889 
	C615.818054,477.455139 614.858398,475.430389 613.729248,473.048096 
	C606.354248,477.193695 597.924683,478.200684 591.760925,483.982178 
	C595.999512,483.688354 600.232666,484.147491 603.619995,480.638977 
	C606.916016,477.225006 610.592407,477.554169 613.655823,480.832001 
	C615.017273,482.288788 616.395630,483.214020 616.777710,479.479889 
M374.645599,494.154907 
	C370.355530,493.539307 372.525269,497.601501 371.131104,499.164978 
	C369.984894,500.450470 370.325500,502.497467 371.794342,503.644257 
	C374.254486,505.564941 377.427124,505.641968 379.726929,504.105194 
	C382.279968,502.399200 379.718628,500.206573 378.748474,498.551514 
	C377.871002,497.054504 376.289703,495.970062 374.645599,494.154907 
M635.207764,519.109253 
	C637.692749,518.734802 640.396057,519.451416 642.654907,517.367798 
	C638.119507,515.792786 633.506531,515.690857 628.921021,516.913635 
	C627.268066,517.354370 626.928833,519.120728 627.388428,520.656982 
	C628.123230,523.113586 630.242493,523.655090 632.476074,523.794312 
	C633.267456,523.843567 634.167297,523.849365 634.526123,522.846252 
	C634.288635,521.513672 632.211426,522.291809 632.154297,520.752441 
	C632.487488,519.578674 633.563843,519.517212 635.207764,519.109253 
M419.234131,500.510956 
	C415.760071,504.214691 422.264069,502.353333 421.395447,504.408386 
	C422.148804,506.091736 419.678131,506.289429 420.083527,507.943451 
	C423.141022,507.398926 426.922180,506.431885 427.134308,503.596283 
	C427.412231,499.881927 422.911072,502.017242 420.886597,500.688110 
	C420.633087,500.521698 420.249390,500.553558 419.234131,500.510956 
M406.314148,513.478333 
	C405.836182,511.011993 406.802338,508.268463 404.467041,504.877289 
	C402.928589,510.733673 403.344543,515.415771 404.004852,520.827942 
	C406.883606,518.583557 405.636780,516.174988 406.314148,513.478333 
M514.870789,404.483765 
	C511.299774,402.384064 507.929596,402.734650 504.715942,405.288818 
	C508.129211,406.464111 511.530884,408.381500 514.870789,404.483765 
M502.561951,375.977386 
	C503.940399,374.614929 506.942230,376.407257 507.459930,373.654022 
	C507.760498,372.055573 506.319366,371.341980 504.939606,371.205780 
	C502.833099,370.997894 500.372955,370.554230 499.485931,373.222656 
	C498.878906,375.048798 499.532135,376.535919 502.561951,375.977386 
M399.445801,532.224121 
	C398.997498,531.569458 397.778351,530.649353 397.725708,531.180176 
	C397.355499,534.912842 393.650238,536.332886 391.985077,539.364441 
	C397.674957,539.463745 400.323486,537.085083 399.445801,532.224121 
M407.828125,526.038452 
	C407.220154,524.773560 406.105255,523.865173 405.450958,525.585693 
	C404.614227,527.786194 404.840179,530.425842 406.723999,532.038025 
	C408.501984,533.559509 410.578644,533.136902 412.381073,531.167542 
	C410.627716,529.646362 407.763794,529.631287 407.828125,526.038452 
M551.472961,508.584717 
	C549.065674,512.572083 554.046509,512.890991 554.374329,515.679626 
	C556.449219,514.548584 557.683655,513.484924 556.998291,511.481262 
	C556.215393,509.192261 554.701660,507.854950 551.472961,508.584717 
M582.417725,495.835846 
	C581.407959,496.423553 579.644226,496.275146 580.054932,498.379089 
	C582.436890,499.273499 584.525818,498.942993 585.944763,496.672729 
	C587.005188,494.976105 587.584351,493.165741 585.425171,491.785583 
	C583.555542,492.524139 584.308838,494.636353 582.417725,495.835846 
M486.324219,633.192505 
	C482.808899,633.062134 482.252960,633.999817 483.309601,638.581787 
	C486.054871,638.072205 486.124542,635.823242 486.324219,633.192505 
M422.535461,496.923889 
	C423.663086,496.888458 424.891083,497.044769 425.311676,495.230713 
	C423.246796,493.798492 421.212677,493.415009 419.001923,494.966583 
	C419.477295,496.739655 420.735748,496.651062 422.535461,496.923889 
z"/>
<path fill="#000000" opacity="1.000000" stroke="none" 
	d="
M299.377380,311.898804 
	C297.817871,317.491638 293.197723,318.030243 288.972778,318.495056 
	C286.357483,318.782806 284.665924,319.380615 283.527313,321.809143 
	C279.195068,331.049194 270.594849,335.755554 262.659363,341.129944 
	C261.206238,342.114075 260.148254,343.239349 259.560883,344.882782 
	C258.170166,348.773987 257.220184,353.025116 251.516357,352.658173 
	C250.347198,352.582947 249.226990,353.949524 249.482513,355.540741 
	C250.170853,356.856720 251.195740,356.262054 252.136795,356.124573 
	C255.506699,355.632294 255.988663,357.663086 255.136734,360.072998 
	C253.922623,363.507446 252.754578,367.036926 250.475327,369.966644 
	C248.101440,373.018036 246.216339,376.240387 245.025604,379.978729 
	C243.080078,386.086761 241.357468,386.670593 235.561935,384.370972 
	C226.555603,380.797302 218.578903,375.228729 209.784149,371.262085 
	C207.027954,370.019012 206.567535,368.167786 207.951447,365.622314 
	C212.003876,358.168579 216.024414,350.697479 220.094696,343.253510 
	C220.953735,341.682434 222.212662,340.413025 224.112091,341.529205 
	C225.906799,342.583862 225.647736,344.144531 224.762573,345.860168 
	C222.993835,349.288300 220.425888,352.454254 220.478073,356.514069 
	C223.521240,358.254028 224.203903,354.810822 226.132202,354.409821 
	C227.131729,358.340179 224.051941,361.313171 223.605774,365.995361 
	C230.150543,361.161194 228.878601,351.404144 236.801895,349.261078 
	C236.701035,346.643646 234.144760,347.423431 232.913986,345.874420 
	C233.882080,342.632965 234.222687,339.116455 233.230545,335.495453 
	C232.507339,332.855957 233.290512,330.687103 236.045959,329.308929 
	C239.298904,327.681885 239.459656,330.779724 240.853500,332.077179 
	C242.938705,334.018219 243.690079,337.890564 249.395691,337.099030 
	C239.257980,330.002075 239.573547,320.870209 242.509842,311.780121 
	C244.940521,304.255280 250.789917,299.227478 258.117889,295.531738 
	C259.788910,298.432281 258.700562,300.052155 256.384399,301.359436 
	C250.034515,304.943359 248.115326,311.720306 245.764420,317.708771 
	C244.186264,321.728790 248.317505,324.722351 251.822601,327.338989 
	C246.482544,317.173004 254.661316,311.358398 259.124664,304.756805 
	C261.356354,301.455963 263.796906,297.948883 266.920197,295.176178 
	C269.778961,292.638306 273.165680,290.875732 276.038910,288.215027 
	C278.684937,285.764679 282.161194,288.709717 282.784027,291.622040 
	C283.593842,295.408875 286.457001,296.209930 288.611725,298.354950 
	C292.561798,302.287109 297.469360,305.831604 299.377380,311.898804 
M269.157074,329.883911 
	C274.662323,326.417816 276.063446,323.847961 274.523590,318.855530 
	C268.793060,324.474426 262.938934,329.558929 253.963593,329.088226 
	C259.003204,334.279541 263.779938,331.400238 269.157074,329.883911 
M275.834381,316.156982 
	C276.164459,317.456879 277.418854,317.921967 277.898193,316.925140 
	C279.916473,312.728088 283.489044,312.591339 288.116425,313.346008 
	C286.488525,310.733459 285.329620,308.873596 284.180206,307.028992 
	C279.652771,308.397034 276.935516,311.163269 275.834381,316.156982 
M242.923676,371.462341 
	C243.877182,369.102844 244.830673,366.743317 245.784164,364.383820 
	C245.394272,364.210236 245.004379,364.036682 244.614487,363.863129 
	C242.981018,368.652740 239.123703,372.198303 236.903625,377.435852 
	C241.596268,377.529633 241.411880,374.157928 242.923676,371.462341 
M220.531616,366.627441 
	C220.063431,366.174561 219.570663,365.744110 219.132553,365.263794 
	C218.388153,364.447723 217.869034,363.169067 216.416611,363.798492 
	C216.046097,363.959045 215.649994,364.509064 215.614075,364.911285 
	C215.493912,366.256989 216.448929,367.047485 217.498840,367.507721 
	C218.672211,368.022125 220.037888,368.683136 221.194824,368.498138 
	C222.567627,368.278687 221.716553,367.428528 220.531616,366.627441 
z"/>
<path fill="#000000" opacity="1.000000" stroke="none" 
	d="
M347.334351,224.245224 
	C341.541016,226.762207 336.832672,229.549652 334.960785,236.013000 
	C333.828430,239.922760 334.734558,242.743103 337.178589,246.182312 
	C336.302704,235.716507 343.905640,231.854172 350.829376,227.465454 
	C356.248535,231.008072 364.291260,221.590576 368.371887,231.590988 
	C372.340332,228.056442 375.749481,224.852524 380.806030,223.270004 
	C384.382660,222.150635 386.947021,217.710449 386.897858,213.198990 
	C386.855072,209.266968 388.024658,205.619049 388.951691,201.932800 
	C390.204254,196.952026 393.805450,196.014343 397.912018,199.315689 
	C403.355499,203.691788 409.003632,207.814407 413.228333,213.543945 
	C415.946991,217.231033 420.315094,219.014389 423.764496,221.881622 
	C424.995789,222.905090 426.192810,223.877731 424.934235,225.573624 
	C423.926819,226.931168 422.212341,227.617828 420.967316,226.639435 
	C413.469879,220.747757 407.227448,226.849091 400.583435,228.649582 
	C398.551697,229.200180 396.815491,230.784164 394.798370,231.461258 
	C392.514099,232.228058 391.118683,233.234818 390.874847,235.882660 
	C390.585083,239.028549 388.563110,240.757629 385.053009,241.224197 
	C385.150421,237.390274 388.165039,232.841385 383.831360,230.683212 
	C380.652863,229.100296 376.970215,230.462173 375.878754,234.693909 
	C369.828949,233.896317 362.916168,239.806717 360.454132,247.801834 
	C364.655457,246.734634 366.972290,242.662292 371.100586,241.542313 
	C373.415070,244.013184 372.411713,245.997528 370.744141,248.149948 
	C367.816589,251.928589 363.828491,254.420547 359.926971,256.884247 
	C357.820038,258.214691 355.990082,259.221680 356.302063,262.232330 
	C351.613251,258.764282 341.647003,259.107697 337.853821,262.990875 
	C338.012054,258.614990 335.360321,256.360962 332.655731,253.958862 
	C326.793518,248.752350 325.816345,239.999405 329.504791,232.995148 
	C333.879578,224.687515 341.160522,220.516998 349.631683,217.854935 
	C351.215179,217.357315 353.438538,215.977722 354.451813,218.402618 
	C355.495850,220.901199 353.246948,221.878632 351.429718,222.734009 
	C350.232056,223.297775 348.940460,223.662079 347.334351,224.245224 
M401.349487,222.552643 
	C404.483337,221.796875 407.198395,220.482208 408.897949,216.800797 
	C403.300537,213.849640 400.541565,207.834915 394.878357,204.094772 
	C393.825348,208.465530 396.493439,212.361786 393.697571,215.798889 
	C391.771912,218.166168 391.189514,221.497971 393.090973,223.645401 
	C395.283569,226.121597 398.260010,224.315338 401.349487,222.552643 
M341.601929,252.211823 
	C343.420258,252.987976 345.183350,253.960419 347.070618,254.491669 
	C349.557159,255.191605 351.943451,254.198898 353.112152,252.137146 
	C354.291016,250.057312 353.287506,248.102646 350.648193,247.001343 
	C348.098389,256.225647 342.884644,246.271240 339.419922,248.577118 
	C338.662720,250.516769 339.854797,251.201874 341.601929,252.211823 
z"/>
<path fill="#000000" opacity="1.000000" stroke="none" 
	d="
M797.183105,353.836792 
	C802.259460,355.551758 807.005676,355.341766 811.756104,354.035553 
	C814.123352,353.384613 816.817871,351.824554 818.651550,354.354736 
	C820.610718,357.058136 821.913879,360.286407 819.758179,363.658356 
	C818.325867,365.898865 816.882507,368.139984 815.302063,370.275757 
	C813.997070,372.039337 812.794861,373.783081 812.771973,376.081543 
	C813.805054,377.341766 815.318970,378.344635 816.652710,378.032959 
	C819.706177,377.319458 821.598389,377.700104 822.894592,380.961914 
	C824.402222,384.755798 826.351196,388.303528 823.223572,392.143250 
	C820.972595,394.906769 819.926636,398.582886 816.421021,400.575134 
	C821.665833,402.097992 825.730835,398.957642 830.227783,398.199646 
	C831.019836,398.066162 831.714355,397.377197 832.507935,397.223602 
	C834.262268,396.884033 836.510376,396.138519 837.277466,398.390198 
	C837.983521,400.462769 836.169922,401.752197 834.429504,402.475403 
	C827.720520,405.263245 821.359985,408.906372 814.243774,410.705872 
	C813.129211,410.987732 812.031677,411.447388 811.020813,411.998444 
	C809.959045,412.577271 809.121033,413.495911 809.449524,414.833862 
	C809.791931,416.228485 810.828064,416.756683 812.121948,416.132019 
	C813.878052,415.284271 814.805298,417.097778 816.539978,417.299103 
	C818.219727,415.709137 819.043518,412.864685 822.265686,412.679230 
	C824.621826,412.543671 826.249084,413.249146 827.219238,415.170471 
	C828.386169,417.481628 826.778625,418.968750 825.100830,420.143036 
	C822.752502,421.786621 820.242859,422.000061 817.546387,420.778290 
	C815.806519,419.989929 813.913818,419.538879 811.372070,418.699799 
	C812.624023,422.248718 812.019470,425.584229 813.820557,428.410950 
	C814.893433,430.094727 814.679749,431.943634 814.630798,433.733826 
	C814.595215,435.035614 813.587646,435.790466 812.276001,435.886169 
	C811.022583,435.977631 809.645325,435.602264 809.549744,434.270752 
	C808.940247,425.779999 802.379150,419.380981 801.489441,411.015503 
	C801.420959,410.372223 801.348755,409.729340 801.274048,409.047180 
	C805.086731,406.439880 808.836365,403.986908 813.863586,402.596497 
	C809.168030,398.714661 803.441284,403.037018 799.795288,398.878143 
	C800.664001,390.585449 809.434082,386.845703 811.481567,379.183594 
	C807.105042,380.383881 805.585999,384.245331 803.276123,387.246063 
	C801.854370,389.092896 800.574158,391.030426 798.813416,392.580688 
	C797.924927,393.363007 796.921387,394.222168 795.727539,393.348480 
	C794.506592,392.455078 792.962646,390.833496 793.776428,389.651154 
	C799.166260,381.820770 792.864807,376.335968 790.061035,370.245667 
	C788.030457,365.834717 786.478516,360.737244 779.983154,360.627258 
	C778.327881,360.599213 777.127502,358.532318 777.727478,356.770905 
	C778.470703,354.589142 780.641235,354.823730 782.438721,355.170868 
	C787.377869,356.124786 792.288452,357.205627 797.183105,353.836792 
M802.097046,376.334473 
	C803.888123,374.311432 805.823669,372.387451 807.032349,369.706970 
	C803.658386,368.929413 803.447510,373.397980 799.763733,372.770020 
	C800.150330,369.878052 796.427185,366.427673 801.922913,364.187805 
	C803.203125,363.666046 803.975708,362.014343 802.491272,360.969238 
	C800.463928,359.541931 797.978149,359.979523 795.765808,360.606567 
	C793.423950,361.270264 793.605774,363.339142 794.099121,365.158112 
	C795.333435,369.709076 797.739258,373.546051 802.097046,376.334473 
z"/>
<path fill="#000000" opacity="1.000000" stroke="none" 
	d="
M643.875977,240.199371 
	C636.854858,237.181030 629.981323,234.841339 623.461182,231.567184 
	C620.564209,230.112457 619.861328,229.165573 621.179932,226.012527 
	C624.481384,218.117828 627.245483,209.999924 630.307556,202.003113 
	C632.582336,196.062241 635.075562,194.878983 640.864929,196.969376 
	C646.781982,199.105896 652.715088,201.220062 658.515808,203.644104 
	C660.422180,204.440765 663.749939,204.982544 662.732788,208.172119 
	C661.741760,211.279846 659.022888,209.424118 657.151367,209.006134 
	C652.276001,207.917267 648.134949,205.040817 643.663391,202.968369 
	C641.045715,201.755142 638.742432,200.529175 637.192322,204.265671 
	C635.326599,208.763077 636.137451,211.210327 640.149597,212.642303 
	C643.259460,213.752274 646.387939,214.810684 649.517639,215.864044 
	C656.710083,218.284744 657.310425,220.085388 652.550659,225.949203 
	C655.288818,227.741409 657.479126,227.208252 658.371765,224.246674 
	C659.908325,219.148407 663.275391,218.483826 667.579590,219.923904 
	C670.667969,220.957214 672.635681,226.403503 671.181274,230.208710 
	C669.999939,233.299332 668.358704,236.227112 666.775330,239.147858 
	C664.689392,242.995651 660.472107,241.138824 657.786743,242.607895 
	C655.661072,241.846130 656.188049,239.335922 653.847107,238.633392 
	C651.268188,241.038895 648.106445,242.975647 643.875977,240.199371 
M631.606079,229.082962 
	C636.064636,230.241470 639.832886,233.961121 645.043030,232.655609 
	C645.484863,229.959351 645.747314,227.219467 648.553162,225.503937 
	C651.201965,223.884323 650.354370,222.320602 647.899231,221.317444 
	C644.849182,220.071243 641.765442,218.906967 638.690186,217.723175 
	C636.643799,216.935486 635.456543,217.391739 635.630005,219.851837 
	C635.664062,220.334747 635.468079,220.805115 634.817383,220.772171 
	C633.557617,220.289185 634.523926,217.954666 632.570435,218.043152 
	C628.593750,222.995132 628.111023,226.231094 631.606079,229.082962 
z"/>
<path fill="#000000" opacity="1.000000" stroke="none" 
	d="
M443.550537,212.484253 
	C448.798096,211.369186 453.392944,210.470047 458.560516,212.235352 
	C462.305511,213.514725 466.707184,211.644012 469.972351,208.864960 
	C473.001740,206.286591 470.222260,203.448792 470.291382,200.700928 
	C463.054169,201.352722 456.180481,200.058640 449.302429,203.393097 
	C443.730133,206.094513 436.010986,201.728470 432.881958,196.115082 
	C431.664612,193.931183 431.801239,191.941620 433.493256,190.168945 
	C439.973572,183.379822 447.187897,178.209839 457.289795,178.967834 
	C461.062805,179.250946 464.874878,179.013687 468.919220,179.013687 
	C469.585144,181.536728 468.752350,183.304352 466.188477,184.858597 
	C462.301697,187.214767 458.511719,188.012268 454.564362,185.474930 
	C449.930145,182.496109 446.752716,186.450500 443.117554,187.812439 
	C440.691223,188.721481 441.055450,191.334076 441.194031,193.516251 
	C441.354523,196.043854 443.451752,197.671997 445.164093,196.940582 
	C451.295410,194.321579 458.075989,194.904358 464.185852,192.573685 
	C469.200012,190.660980 472.821167,192.740875 475.991638,196.337677 
	C476.645630,197.079590 477.053589,198.033218 477.670074,198.814148 
	C481.545105,203.722488 481.640778,205.692154 476.852539,209.793488 
	C467.087372,218.157822 455.595734,220.956131 443.001068,218.977890 
	C440.878174,218.644440 437.201965,219.018829 437.475433,215.388580 
	C437.721130,212.127258 441.183655,213.467072 443.550537,212.484253 
z"/>
<path fill="#000000" opacity="1.000000" stroke="none" 
	d="
M460.945709,824.879089 
	C466.421753,823.027283 470.525238,825.544739 474.213593,828.261353 
	C480.673401,833.019409 478.352875,843.721436 470.091705,846.593262 
	C462.465881,849.244202 454.817810,848.979431 447.620026,844.572876 
	C444.370911,842.583801 440.149536,842.985107 437.004211,840.513428 
	C435.607330,839.415710 433.272888,838.776550 434.594086,836.446106 
	C435.713043,834.472412 437.818329,834.907776 439.499420,835.778870 
	C442.283813,837.221741 444.892853,839.005066 447.686951,840.426392 
	C449.065033,841.127380 450.824371,842.436829 452.210602,840.668335 
	C453.678589,838.795593 451.135101,837.930847 450.844696,836.736633 
	C450.068451,833.544495 449.333893,830.354248 446.444031,828.697021 
	C443.431519,826.969482 441.196198,824.772644 439.406219,821.872681 
	C436.367828,816.950195 437.070465,813.209778 442.199005,810.153381 
	C451.053925,804.876343 460.034210,806.564514 468.920959,810.175781 
	C471.067596,811.048035 473.079407,812.256226 475.139221,813.336548 
	C476.470856,814.034973 477.210052,815.062500 476.523163,816.593140 
	C475.891602,818.000427 474.604553,818.777588 473.272430,818.078491 
	C469.276123,815.981262 464.697296,816.166260 460.502380,814.294922 
	C456.719452,812.607300 451.828033,814.664307 447.367310,813.852051 
	C446.120087,813.624878 445.278168,815.738037 445.291199,817.385437 
	C445.310944,819.879028 446.599121,821.604004 448.877716,822.224365 
	C452.717163,823.269775 456.640381,824.007507 460.945709,824.879089 
M455.725800,833.226562 
	C460.858582,835.854858 457.101013,838.530579 455.532196,841.024109 
	C459.725403,844.030701 467.064941,843.544006 470.081909,840.327759 
	C472.152588,838.120300 472.382233,835.881226 470.086578,833.865417 
	C466.042511,830.314331 461.092285,828.966736 455.867310,829.380127 
	C453.464478,829.570312 451.878357,831.119690 455.725800,833.226562 
z"/>
<path fill="#000000" opacity="1.000000" stroke="none" 
	d="
M676.410400,243.693985 
	C674.608643,246.039810 673.019714,248.174347 671.603821,250.418091 
	C670.638855,251.947372 669.740112,253.316986 667.695801,252.152664 
	C665.988220,251.180161 664.589294,249.905487 665.725037,247.737595 
	C670.817322,238.017960 676.571838,228.705612 683.671265,220.317230 
	C685.976746,217.593079 688.415649,219.443710 689.987122,221.420959 
	C693.904358,226.349640 698.001465,231.187958 700.522949,237.077255 
	C703.925476,245.024384 706.027466,245.378876 711.506714,238.882812 
	C712.688843,237.481293 713.928711,236.352661 715.715210,237.395859 
	C717.771545,238.596695 717.457153,240.557327 716.363220,242.175629 
	C710.969604,250.155136 707.439514,259.292908 701.121765,266.687561 
	C699.906921,268.109497 698.962219,270.668060 696.474487,269.187378 
	C694.216919,267.843781 695.388794,265.433563 696.011780,263.737518 
	C696.797302,261.598907 698.274536,259.702179 699.532715,257.752289 
	C701.413574,254.837173 700.866272,252.297760 699.757629,248.990417 
	C697.534241,242.357620 692.155579,237.740814 689.745850,231.309464 
	C688.394714,227.703415 685.701233,227.419159 683.589905,230.447433 
	C681.797791,233.017914 680.492737,235.929459 678.992493,238.701050 
	C678.571960,239.478073 678.474243,240.296875 679.137390,241.005676 
	C679.792480,241.705872 680.882202,241.947006 681.338074,241.249893 
	C683.511658,237.925995 687.090210,239.854294 689.865112,238.458969 
	C692.048523,241.389481 689.140137,247.110321 695.265686,247.070633 
	C693.036011,251.899460 691.802734,251.863281 688.178528,249.289948 
	C684.727661,246.839722 680.553223,245.408478 676.410400,243.693985 
z"/>
<path fill="#000000" opacity="1.000000" stroke="none" 
	d="
M260.883057,666.105835 
	C261.293549,667.057922 261.618256,667.654724 261.788788,668.292664 
	C262.333252,670.329346 265.100250,672.824280 261.930817,674.314087 
	C259.261230,675.568909 258.276154,672.321472 257.604034,670.568665 
	C255.845535,665.982727 251.809509,662.672363 250.967239,657.504883 
	C250.564285,655.032654 248.260666,653.088196 245.223175,654.775513 
	C242.787460,656.128357 239.936813,657.326416 241.962296,661.210693 
	C244.107452,665.324463 245.395920,669.853271 248.035004,673.752075 
	C249.332062,675.668274 250.050476,678.026611 247.569534,679.388794 
	C245.002167,680.798523 244.245514,678.235962 243.242065,676.587952 
	C242.306183,675.050964 241.375977,673.510498 240.134155,671.461548 
	C237.958237,675.030151 242.453415,677.761047 240.355423,680.682556 
	C237.815353,681.169861 238.557007,677.884338 235.859879,677.037354 
	C240.069061,682.956421 233.435455,685.507385 233.019135,690.011841 
	C232.866074,691.667908 230.435120,690.881409 229.511627,689.511475 
	C228.497650,688.007446 227.569489,686.369202 226.996536,684.657898 
	C224.873444,678.316895 220.203857,673.308838 217.981888,667.002991 
	C216.834305,663.746277 217.608475,661.879883 220.454651,659.967651 
	C228.511337,654.554810 237.937286,651.826355 246.059311,646.553528 
	C248.382767,645.045105 250.583420,645.896545 251.766663,648.553406 
	C254.403931,654.474976 258.684937,659.539490 260.883057,666.105835 
M232.864182,679.734558 
	C232.399918,675.560242 229.448578,672.236572 228.628677,668.305542 
	C230.269302,666.904053 230.933075,669.798340 232.698517,668.384399 
	C230.341949,664.096863 235.292252,665.774414 236.650757,664.354675 
	C235.687103,661.001343 234.305389,659.730286 231.245682,662.015198 
	C229.669708,663.192078 227.759933,663.964233 225.925568,664.741272 
	C223.969269,665.570007 223.430695,666.778442 224.391602,668.670654 
	C226.125626,672.085327 227.713318,675.586975 229.679459,678.861755 
	C230.143936,679.635315 230.647476,682.558167 232.864182,679.734558 
z"/>
<path fill="#000000" opacity="1.000000" stroke="none" 
	d="
M808.676880,664.648560 
	C806.333374,669.100891 804.226868,673.256836 801.975403,677.332825 
	C800.627625,679.772766 799.796265,682.127014 801.035461,684.903564 
	C801.693604,686.378174 802.542908,688.366699 800.345947,689.178650 
	C798.593628,689.826355 796.315369,689.358337 795.505920,687.568970 
	C791.539795,678.801270 783.749756,672.845032 778.986145,664.684937 
	C775.529907,658.764343 778.064453,652.971436 784.827148,652.120300 
	C788.932556,651.603577 793.146362,651.341125 797.182739,652.850342 
	C801.741516,654.554871 806.440857,653.629639 811.042419,653.376221 
	C814.425476,653.189819 814.212280,649.653503 815.624817,647.259949 
	C811.399109,644.728210 806.179749,644.559937 802.569519,640.339722 
	C809.364319,636.611267 813.141602,643.218018 818.159607,643.392822 
	C818.904175,647.950317 816.941467,651.943115 818.969238,655.924377 
	C820.079773,658.104614 817.763428,658.990295 816.183105,658.895020 
	C812.062744,658.646545 810.125854,660.935425 808.676880,664.648560 
M789.331543,662.313110 
	C788.114746,662.088989 786.832458,661.112061 785.598694,662.817749 
	C786.781738,667.637451 791.003174,670.379395 793.968140,673.983032 
	C795.016235,675.256836 796.749695,675.058411 797.734253,673.430725 
	C799.867615,669.903564 801.935120,666.334656 802.878418,662.118774 
	C800.048279,664.503296 796.961914,665.915466 793.142517,666.176697 
	C792.299561,664.915588 792.177124,662.721436 789.331543,662.313110 
z"/>
<path fill="#000000" opacity="1.000000" stroke="none" 
	d="
M793.046082,314.084015 
	C796.192688,318.377045 797.162109,322.537048 793.907410,326.763062 
	C790.498596,331.189087 786.158264,333.940826 780.262939,333.363495 
	C774.192932,332.769073 773.254028,333.503693 771.789185,339.345947 
	C771.245178,341.515778 770.098572,343.766785 767.404175,343.000336 
	C764.918335,342.293274 763.690857,340.083008 764.389526,337.453827 
	C765.154053,334.577240 766.204834,331.768799 767.261658,328.980255 
	C768.138733,326.666107 768.048096,324.774963 765.643555,323.501099 
	C763.112305,325.639313 762.928345,325.696411 760.615845,325.087891 
	C760.101501,323.082214 762.669617,323.099274 762.913086,321.590881 
	C759.946655,315.196289 759.970093,315.233215 754.251831,318.866455 
	C752.670410,319.871246 750.878540,321.797211 749.045654,319.456329 
	C747.359741,317.303101 749.153564,315.772980 750.554138,314.345459 
	C757.359314,307.409363 765.324280,301.947510 773.270508,296.453888 
	C775.823486,294.688812 777.855530,295.040039 779.745300,297.411438 
	C784.100586,302.876587 788.495483,308.310242 793.046082,314.084015 
M784.695923,323.428131 
	C788.734192,321.965210 789.437561,319.377380 787.561035,315.639709 
	C785.541992,311.618103 783.387207,307.714264 780.197571,304.488281 
	C778.418335,302.688690 776.056641,301.479431 773.997009,303.259308 
	C770.881836,305.951355 766.097473,307.249176 765.558716,312.333832 
	C765.512451,312.770721 765.819580,313.297852 766.082153,313.706116 
	C767.779541,316.344727 769.360413,319.077118 771.267212,321.557587 
	C773.750671,324.788147 777.003418,326.681885 780.812256,326.612976 
	C782.413391,324.692383 780.213013,323.751221 780.792664,322.455658 
	C782.112244,321.982422 783.031250,322.897522 784.695923,323.428131 
z"/>
<path fill="#000000" opacity="1.000000" stroke="none" 
	d="
M300.674133,262.656128 
	C303.103546,260.434265 303.023346,258.563171 300.946045,256.467590 
	C299.162628,254.668472 298.206146,252.376175 300.439209,250.346313 
	C302.712860,248.279541 304.286011,250.452087 305.967712,251.756485 
	C313.786926,257.821259 319.581451,265.768280 325.984924,273.151825 
	C327.467255,274.861023 328.116791,276.469421 326.239166,278.355286 
	C324.300507,280.302460 323.119293,278.507904 321.527435,277.726044 
	C318.494324,276.236328 316.882141,273.521393 315.058350,270.977814 
	C314.092407,269.630676 313.398926,268.079895 311.949738,267.139526 
	C310.599609,266.263367 309.296478,264.631958 307.525696,265.774323 
	C305.283600,267.220795 308.144287,268.590363 307.869446,270.410400 
	C300.101837,269.041626 296.099274,274.942810 291.235199,279.181610 
	C288.947357,281.175323 288.999481,283.281555 291.201965,285.584381 
	C294.521820,289.055542 298.199402,292.203827 300.838470,296.322021 
	C301.938324,298.038330 303.616516,299.525421 301.767395,301.542053 
	C299.614227,303.890259 297.930115,301.858826 296.174835,300.698669 
	C287.556824,295.002411 282.640869,285.946320 276.003906,278.454651 
	C274.817780,277.115784 274.431824,275.382477 276.027100,274.011292 
	C277.679657,272.590851 279.849945,272.852325 281.035736,274.231293 
	C284.509613,278.271027 287.225677,275.854645 289.815918,273.451782 
	C293.469543,270.062439 296.900665,266.433228 300.674133,262.656128 
z"/>
<path fill="#000000" opacity="1.000000" stroke="none" 
	d="
M779.037964,708.278442 
	C782.872437,711.209106 786.585632,708.157410 790.423157,708.273071 
	C787.752014,714.562561 786.025513,715.454163 780.451172,713.826233 
	C775.353821,712.337524 765.906921,718.642090 765.239868,723.976135 
	C764.925171,726.492981 766.332397,727.965393 768.246887,729.268616 
	C769.948975,730.427368 771.679993,731.918213 769.975342,734.154053 
	C768.237244,736.433655 766.159851,734.898987 764.702148,733.775635 
	C757.724609,728.398682 750.884705,722.842712 744.008301,717.334900 
	C740.372498,714.422607 739.805237,711.329773 743.143616,707.656677 
	C747.712708,702.629456 751.002380,696.460449 756.771362,692.497131 
	C760.750366,689.763489 764.992310,687.065247 769.474548,690.822205 
	C773.911255,694.540771 780.475952,697.412537 777.802612,705.368469 
	C777.445312,706.431763 778.080933,707.285034 779.037964,708.278442 
M764.423828,696.290100 
	C755.220642,696.236084 752.725525,704.486877 747.915955,709.795471 
	C746.676331,711.163635 747.941467,712.672180 749.445190,713.346741 
	C752.112549,714.543091 754.118713,716.465515 755.889038,718.707825 
	C758.019592,721.406433 760.221008,721.513794 762.473022,718.855713 
	C764.512634,716.448303 766.707642,714.151917 768.548096,711.600281 
	C773.127808,705.250854 771.568481,698.419861 764.423828,696.290100 
z"/>
<path fill="#000000" opacity="1.000000" stroke="none" 
	d="
M712.719177,788.148132 
	C710.861450,792.325195 708.973267,792.741516 706.591736,788.727051 
	C705.162659,786.318054 703.289673,784.148926 701.455200,782.010071 
	C699.226074,779.411072 696.933594,777.154785 693.010620,779.617554 
	C691.784424,780.387390 689.369812,780.597229 688.200989,779.895081 
	C683.074524,776.815430 677.844299,779.247986 672.697144,779.146484 
	C668.290222,779.059692 667.445374,780.909424 669.909485,784.790283 
	C673.446106,790.359924 677.073120,795.872192 680.629211,801.429626 
	C681.161072,802.260681 681.630188,803.168457 681.927734,804.104492 
	C682.387451,805.550903 682.773438,807.153748 681.045898,808.062256 
	C679.393372,808.931213 677.805725,808.037720 677.214783,806.714417 
	C674.416260,800.447510 669.121216,795.825073 666.210205,789.667542 
	C665.070557,787.256958 663.891968,784.940735 661.987915,782.970764 
	C659.293396,780.182922 659.545166,776.835449 662.934998,775.195862 
	C668.683716,772.415466 674.396484,768.946106 681.322083,772.392151 
	C684.634766,774.040466 688.167419,771.959717 691.584778,771.554871 
	C693.332581,771.347839 693.914246,769.779114 693.096863,768.088806 
	C692.666626,767.198853 691.824890,766.473694 691.533081,765.558167 
	C690.978943,763.819702 688.526917,761.946045 690.708435,760.248962 
	C693.110046,758.380676 695.421570,760.412231 696.618286,762.209473 
	C700.372864,767.848389 703.974487,773.624634 707.122131,779.617249 
	C708.690735,782.603760 710.534973,785.259949 712.719177,788.148132 
z"/>
<path fill="#000000" opacity="1.000000" stroke="none" 
	d="
M625.164673,801.109741 
	C626.861694,809.072388 628.328308,809.829468 635.260132,806.092346 
	C638.929932,804.113892 642.838867,802.852234 646.691040,801.387756 
	C648.292786,800.778870 649.703796,800.919861 650.532043,802.538330 
	C651.292847,804.024902 650.348694,805.273682 649.248352,805.942078 
	C647.286499,807.133667 645.188293,808.596802 643.019592,808.848694 
	C638.558472,809.366760 635.438171,813.054871 630.994873,813.408508 
	C630.538330,813.444885 629.688416,814.496643 629.794312,814.738159 
	C631.106567,817.731262 632.282532,820.845825 634.066223,823.551697 
	C635.605347,825.886353 638.080688,824.622253 639.958313,823.714233 
	C645.028870,821.262512 650.798035,820.615295 655.600037,817.419495 
	C656.912781,816.545776 659.074097,815.180542 660.350281,817.619995 
	C661.625000,820.056641 659.746582,821.526367 657.906006,822.261963 
	C649.604248,825.579224 641.244873,828.757812 632.850464,831.834412 
	C630.677856,832.630615 629.551758,831.179565 628.877319,829.173340 
	C626.018372,820.668091 622.299133,812.515564 618.526917,804.389709 
	C616.237427,799.457886 617.111572,797.168335 622.017151,795.070190 
	C627.050049,792.917542 632.005127,790.581848 637.050598,788.460266 
	C639.025208,787.630005 641.132263,787.080078 643.218689,786.562683 
	C644.558960,786.230408 646.053955,786.331299 646.573975,787.892517 
	C647.108582,789.497498 645.892883,790.302429 644.612549,790.877563 
	C639.354065,793.239380 634.136475,795.703491 628.797913,797.868774 
	C627.202820,798.515747 625.587463,798.736023 625.164673,801.109741 
z"/>
<path fill="#000000" opacity="1.000000" stroke="none" 
	d="
M414.575714,804.322693 
	C415.528961,806.007141 416.083466,807.428162 415.559387,808.955383 
	C412.890015,816.734070 414.538849,824.334656 416.441742,831.927734 
	C416.738647,833.112488 417.009552,834.463318 415.677277,834.971680 
	C413.758820,835.703857 411.415863,834.885376 410.860138,833.346008 
	C406.955322,822.530151 395.783936,823.893555 388.105865,819.480286 
	C386.608398,818.619507 384.900116,819.348206 383.372314,820.218689 
	C381.832550,821.096008 380.418488,822.455688 377.562683,821.906067 
	C379.041016,817.463196 381.778137,814.071045 385.010468,811.194397 
	C391.076965,805.795654 396.716095,799.884399 403.662231,795.499573 
	C405.621796,794.262634 407.136292,792.250671 409.828003,793.579041 
	C412.190155,794.744629 413.181641,796.628967 413.051697,799.244934 
	C412.967682,800.935730 413.426971,802.542603 414.575714,804.322693 
M400.347351,819.214111 
	C402.705902,820.493713 405.330750,821.997986 407.535431,819.544006 
	C409.649994,817.190125 410.404907,813.715820 408.303131,811.276855 
	C405.726746,808.286987 405.279968,805.130188 405.993561,800.305237 
	C400.690430,805.695618 394.171112,807.917542 391.780426,814.655334 
	C393.939911,817.180298 397.255981,817.210266 400.347351,819.214111 
z"/>
<path fill="#000000" opacity="1.000000" stroke="none" 
	d="
M317.706238,771.727783 
	C316.097870,773.663025 314.750397,775.351868 313.371338,777.014587 
	C311.558563,779.200134 309.457672,779.856995 306.444458,778.102234 
	C308.638977,773.028809 312.092590,768.979492 315.381317,764.943970 
	C318.578247,761.020996 317.750519,758.291626 314.329712,755.190918 
	C310.895508,752.078064 307.663544,748.695740 304.671783,745.153748 
	C301.440094,741.327637 298.569275,741.911865 295.541748,745.172058 
	C292.602356,748.337219 289.710968,751.547729 286.733521,754.676453 
	C285.605713,755.861572 284.303619,757.402710 282.509644,755.903137 
	C280.865906,754.529114 281.681641,753.038391 282.678406,751.501526 
	C288.084106,743.166504 295.551819,736.776306 302.778473,730.178223 
	C304.086670,728.983826 305.991516,726.937439 307.934875,729.052124 
	C309.563965,730.824829 307.771942,732.492249 306.689911,733.855042 
	C304.373474,736.772400 304.770844,739.366638 307.325287,741.792358 
	C311.056335,745.335449 314.771362,748.900146 318.617554,752.315674 
	C321.314056,754.710266 324.297150,755.729309 327.650146,753.292175 
	C328.565338,752.626953 329.717102,752.178772 331.786499,753.025024 
	C329.617859,761.024170 323.207031,765.846924 317.706238,771.727783 
z"/>
<path fill="#000000" opacity="1.000000" stroke="none" 
	d="
M255.264160,726.670105 
	C251.059341,720.729248 247.919510,714.851135 248.758759,707.549805 
	C250.250412,694.572571 264.082428,686.797607 275.481842,692.994507 
	C284.580750,697.940674 292.219177,705.821594 290.137329,715.195496 
	C287.414642,714.831787 287.288361,712.317139 286.363647,710.617249 
	C282.982361,704.401306 278.444977,699.341248 271.274475,697.956116 
	C261.648621,696.096680 257.202087,701.502319 256.596375,711.152466 
	C256.025299,720.250366 259.688324,725.823486 266.364594,730.584778 
	C267.589081,731.458008 269.019836,732.389465 267.947296,734.204468 
	C266.832581,736.090698 264.975281,735.796143 263.547760,734.934814 
	C260.251312,732.945801 257.403748,730.390991 255.264160,726.670105 
z"/>
<path fill="#000000" opacity="1.000000" stroke="none" 
	d="
M227.596237,614.822021 
	C230.747742,613.622620 231.259216,611.573975 231.090759,608.715149 
	C230.936462,606.096680 228.996262,603.365112 230.950745,600.632751 
	C233.639008,600.975769 234.561340,603.332642 234.882278,604.837646 
	C236.579437,612.796753 240.980392,619.832214 242.446793,627.831421 
	C242.766357,629.574646 243.799408,631.435852 241.862244,632.871216 
	C239.775970,634.417114 238.724899,631.512756 236.547836,631.649414 
	C234.280090,635.325928 230.251419,636.269348 226.120575,636.826904 
	C223.919434,637.124023 222.008194,637.842285 220.100525,638.969604 
	C218.228241,640.075989 216.967529,638.663025 216.066376,637.179932 
	C215.138718,635.653198 216.061279,634.601196 217.340622,633.952332 
	C221.297867,631.945557 225.094864,629.075012 229.945694,630.670654 
	C232.895706,631.640991 234.198746,629.195312 235.782928,627.824890 
	C237.239685,626.564636 235.825043,624.698608 235.310730,623.191528 
	C234.530426,620.904968 232.595535,621.057861 230.730881,621.383972 
	C223.063980,622.725159 215.919724,625.875549 208.441315,627.874878 
	C207.643616,628.088196 206.912750,628.587036 206.110214,628.739746 
	C204.139435,629.114746 202.253601,628.703979 201.628998,626.628174 
	C201.032898,624.647095 202.564697,623.585938 204.227127,622.994324 
	C208.452866,621.490173 212.711258,620.078003 216.946106,618.599060 
	C220.386200,617.397644 223.811188,616.152954 227.596237,614.822021 
z"/>
<path fill="#000000" opacity="1.000000" stroke="none" 
	d="
M569.806824,204.074387 
	C568.113525,192.423584 579.197632,181.485931 588.767029,181.613983 
	C595.023560,181.697723 600.328796,183.647736 605.737183,185.942337 
	C607.613525,186.738373 610.370850,188.031235 608.805542,190.616760 
	C607.583679,192.635056 604.933777,191.308350 603.385254,190.364105 
	C598.484558,187.375809 593.177429,186.703094 587.671509,187.027908 
	C581.788208,187.375000 576.870117,192.596939 575.439331,199.699265 
	C574.590759,203.911377 578.312744,209.503738 582.508667,212.329758 
	C588.366272,216.275055 594.146790,219.167343 601.491455,217.399002 
	C603.218567,216.983154 605.090271,218.015961 605.495361,220.260559 
	C599.815735,226.181030 598.596558,226.058029 591.558411,222.363846 
	C587.571472,220.271194 583.231567,219.060684 579.191284,216.675766 
	C574.054932,213.643906 571.477722,209.690475 569.806824,204.074387 
z"/>
<path fill="#000000" opacity="1.000000" stroke="none" 
	d="
M363.516846,771.304688 
	C370.263672,774.408936 372.610443,776.799011 375.093231,783.154846 
	C370.078705,780.450134 365.267548,778.143372 360.758057,775.349609 
	C355.180511,771.894104 349.697357,772.272156 344.470032,777.011169 
	C339.319336,781.680725 338.231140,786.939087 340.901886,792.626282 
	C344.054291,799.339111 348.459229,804.174255 356.340759,805.170288 
	C359.014191,805.508057 361.540741,807.008118 364.359619,808.061279 
	C362.948120,811.754333 361.448730,813.284119 357.540192,811.582031 
	C351.603638,808.996704 345.610748,806.785095 340.734192,802.204773 
	C333.406128,795.321777 330.410126,785.693665 333.972473,779.075134 
	C339.352295,769.079895 347.785156,765.990356 359.419403,769.773193 
	C360.683197,770.184143 361.912415,770.701355 363.516846,771.304688 
z"/>
<path fill="#000000" opacity="1.000000" stroke="none" 
	d="
M568.276733,829.824829 
	C562.966309,824.321167 567.649414,820.242981 569.934998,816.266357 
	C575.309265,806.915894 588.030884,801.968811 598.472412,804.661316 
	C600.264771,805.123535 601.718018,805.994568 601.315186,808.055481 
	C600.930359,810.024536 599.337097,809.618103 597.747009,809.615723 
	C589.773865,809.603821 582.092102,810.583374 575.992188,816.614441 
	C572.143311,820.419861 571.741699,824.318787 573.919495,829.245605 
	C576.407532,834.874084 581.109436,837.653381 586.119019,840.219788 
	C588.850952,841.619507 591.630554,840.969116 594.319031,839.812317 
	C597.979980,838.236938 601.671326,836.729309 605.301514,835.086365 
	C606.682678,834.461243 607.902405,834.248047 608.814270,835.624512 
	C609.727295,837.002686 609.221313,838.258301 607.897156,839.013123 
	C599.014038,844.076721 583.156494,847.045776 573.613342,839.625305 
	C570.332520,837.074280 570.447327,833.142700 568.276733,829.824829 
z"/>
<path fill="#000000" opacity="1.000000" stroke="none" 
	d="
M516.359131,832.342529 
	C516.682190,834.595032 516.834595,836.436890 515.916199,838.135498 
	C514.059021,841.570129 513.058044,845.200317 513.025635,849.121338 
	C513.014709,850.451843 512.741882,851.802185 510.956329,852.486328 
	C508.159302,851.617249 509.035309,849.162048 509.146484,847.206726 
	C509.550293,840.104248 509.852600,833.127991 508.465729,825.963867 
	C507.471497,820.827698 505.205994,819.759583 500.783417,819.951721 
	C497.444824,820.096741 493.558655,820.769531 492.661407,815.656189 
	C496.425171,812.718933 500.855499,814.477539 504.799164,813.503601 
	C510.958893,811.982300 517.320374,811.899719 523.648804,811.951538 
	C526.482910,811.974731 529.183533,812.475403 529.158020,816.169312 
	C529.131531,820.002747 526.010986,818.646729 523.971558,819.040710 
	C523.490417,819.133667 522.975769,819.049805 522.476501,819.052612 
	C515.601501,819.091064 515.611877,819.090637 516.056824,825.937317 
	C516.186279,827.929260 516.237854,829.926331 516.359131,832.342529 
z"/>
<path fill="#000000" opacity="1.000000" stroke="none" 
	d="
M213.746094,410.133545 
	C217.736038,411.431183 221.354385,412.623138 224.978363,413.797729 
	C227.077530,414.478119 228.854553,415.811249 228.266281,418.072388 
	C227.589096,420.675262 225.134491,420.263885 223.263077,419.548737 
	C218.216797,417.620361 212.842728,416.828125 208.026627,413.959442 
	C200.984192,409.764587 195.857468,412.356750 193.371140,420.432068 
	C192.954056,421.786774 191.858322,422.994965 190.878632,424.094910 
	C190.045074,425.030823 188.850006,425.227295 187.696228,424.509857 
	C186.670258,423.871948 186.617645,422.844360 186.933762,421.856384 
	C190.010010,412.242096 193.074371,402.623352 196.270081,393.048584 
	C196.758438,391.585449 197.503357,389.478973 199.696777,390.294586 
	C201.799072,391.076294 201.558624,393.296356 201.370178,395.056915 
	C201.233704,396.332184 200.430695,397.524414 200.015594,398.783539 
	C198.077545,404.662018 198.774567,405.659698 205.564865,406.466583 
	C206.765778,403.154114 206.766373,399.130157 210.228729,396.365692 
	C212.092178,399.276642 211.808899,402.179901 210.435181,404.447021 
	C208.019394,408.433960 209.922592,409.475433 213.746094,410.133545 
z"/>
<path fill="#000000" opacity="1.000000" stroke="none" 
	d="
M439.882935,382.848419 
	C442.949036,381.298645 445.156464,378.782410 448.722656,378.358643 
	C449.136047,380.883606 447.681549,382.596283 446.304535,383.646637 
	C441.040039,387.662231 435.512848,391.332184 430.108826,395.166626 
	C425.734253,398.270599 421.108978,401.118805 417.998810,405.655212 
	C416.458923,407.901245 414.491638,409.577087 412.312561,411.166809 
	C407.453979,414.711334 403.391632,418.888306 400.162292,424.162048 
	C396.464478,430.200806 391.716888,435.599548 387.372986,441.235992 
	C386.869751,441.888916 385.996826,442.156677 384.052795,441.589386 
	C387.034424,435.893097 389.469147,430.014008 392.955231,424.843811 
	C399.675781,414.876587 408.002716,406.564423 418.041748,399.549042 
	C425.397949,394.408417 433.467590,389.922546 439.882935,382.848419 
z"/>
<path fill="#000000" opacity="1.000000" stroke="none" 
	d="
M515.510864,196.448303 
	C518.144226,200.869812 516.834167,204.971695 515.501038,208.867401 
	C514.485413,211.835251 511.655701,211.759430 509.138855,211.017502 
	C506.458099,210.227234 507.581512,208.133240 507.996552,206.449310 
	C510.168701,197.636047 509.071747,188.996582 506.687531,180.422348 
	C505.992126,177.921402 504.139923,178.316025 502.253754,178.699066 
	C499.250916,179.308899 494.783234,181.121399 493.994415,177.407715 
	C493.177826,173.563156 498.382019,173.383286 501.023590,173.091385 
	C509.751007,172.127029 518.603149,170.987503 527.805664,173.535156 
	C526.364014,176.840302 523.919067,176.734558 521.748535,177.023834 
	C514.586365,177.978378 513.954834,178.651306 513.942993,185.771378 
	C513.937195,189.265640 513.847717,192.776459 515.510864,196.448303 
z"/>
<path fill="#000000" opacity="1.000000" stroke="none" 
	d="
M822.464722,638.742981 
	C820.292969,635.573730 817.332458,633.948242 813.727661,632.940430 
	C808.468445,631.470032 803.325073,629.589355 798.115356,627.936951 
	C795.635437,627.150330 792.754517,625.996643 793.552307,623.120667 
	C794.445679,619.900513 797.582336,621.063599 799.957092,621.738342 
	C805.539490,623.324707 811.127563,624.903809 816.653992,626.671326 
	C823.830933,628.966553 825.956299,627.980652 829.138550,621.143921 
	C830.887817,617.385742 831.511780,612.833984 835.449402,610.440002 
	C837.192566,611.282837 836.922729,612.523987 836.595337,613.611572 
	C834.780212,619.642639 832.691895,625.599487 831.100220,631.687134 
	C829.915100,636.219849 826.515564,637.537231 822.464722,638.742981 
z"/>
<path fill="#000000" opacity="1.000000" stroke="none" 
	d="
M734.090454,758.911011 
	C729.212341,755.277283 725.856262,750.731262 722.367920,746.283569 
	C718.426941,741.258911 716.408447,741.212280 712.149353,745.975708 
	C710.263733,748.084473 708.533875,750.236511 705.149231,749.479492 
	C706.967468,743.002686 727.211243,724.591919 731.429626,725.644897 
	C731.111267,728.874817 728.614441,730.665161 726.711304,732.827576 
	C723.088806,736.943359 723.302979,739.308899 727.585144,742.777283 
	C732.145752,746.471375 740.356995,758.831360 741.038025,763.325195 
	C738.280457,762.529724 736.510925,760.509644 734.090454,758.911011 
z"/>
<path fill="#000000" opacity="1.000000" stroke="none" 
	d="
M757.791016,273.206848 
	C758.767212,274.518890 759.931030,275.416321 759.213745,277.272583 
	C756.450317,278.105408 755.203735,275.747894 753.685547,274.234375 
	C750.470276,271.029144 747.854797,270.716644 744.648804,274.606476 
	C739.688965,280.624420 733.220276,285.305023 728.991211,292.031647 
	C727.809387,293.911285 726.015259,294.695282 723.867249,293.211304 
	C721.514526,291.585876 722.477844,289.883698 723.649780,288.077820 
	C726.777710,283.258087 731.607727,280.094482 735.402039,275.905640 
	C743.026550,267.488129 743.157410,267.606689 738.077515,257.434784 
	C746.812195,260.334595 751.621216,267.366943 757.791016,273.206848 
z"/>
<path fill="#000000" opacity="1.000000" stroke="none" 
	d="
M792.360596,346.506378 
	C790.572510,345.281830 788.996643,345.294098 787.287415,345.669006 
	C784.953308,346.181000 782.247925,346.487274 781.068604,344.006073 
	C779.885498,341.516815 782.564087,339.955048 783.755615,338.133789 
	C784.229553,337.409485 785.427917,337.159210 786.660095,336.498016 
	C787.945435,339.275726 789.747559,341.114655 793.355469,338.553619 
	C793.315796,342.165283 794.729126,344.459290 797.627258,345.422455 
	C796.006531,348.608551 794.302185,347.355469 792.360596,346.506378 
z"/>
<path fill="#000000" opacity="1.000000" stroke="none" 
	d="
M321.535217,258.456970 
	C322.299530,256.139221 323.311584,255.005615 325.683624,255.755310 
	C327.929382,256.465088 332.122375,259.214661 334.120270,261.760223 
	C330.899170,263.648468 327.286560,264.407288 323.831085,264.405487 
	C320.041534,264.403503 319.845886,261.701355 321.535217,258.456970 
z"/>
<path fill="#000000" opacity="1.000000" stroke="none" 
	d="
M241.134003,695.146973 
	C241.405609,691.833130 241.705124,688.884766 242.019287,685.937988 
	C242.174271,684.484375 242.030518,682.737732 244.011139,682.453796 
	C245.825317,682.193665 247.225464,683.278076 248.183563,684.651062 
	C250.440506,687.885254 246.158936,696.734924 242.228882,696.977966 
	C241.906677,696.997925 241.523056,696.024902 241.134003,695.146973 
z"/>
<path fill="#000000" opacity="1.000000" stroke="none" 
	d="
M616.166077,217.611526 
	C615.621338,218.788742 615.143494,219.667221 613.442383,219.725861 
	C614.762573,216.217178 609.306885,213.170486 613.237488,209.479477 
	C616.273804,206.628235 620.342468,209.559219 623.502258,207.256516 
	C624.371765,210.189148 622.923157,211.262695 620.827698,212.012817 
	C618.321289,212.910049 616.453613,214.419296 616.166077,217.611526 
z"/>
<path fill="#000000" opacity="1.000000" stroke="none" 
	d="
M317.654022,243.299484 
	C320.265808,244.451675 321.614899,246.299698 320.398193,248.550446 
	C319.184479,250.795578 316.618591,251.664688 314.472076,249.998611 
	C312.580505,248.530411 311.508972,250.555649 310.100861,250.564774 
	C309.206055,246.502106 311.559509,244.202637 317.654022,243.299484 
z"/>
<path fill="#000000" opacity="1.000000" stroke="none" 
	d="
M348.320282,784.561401 
	C351.273651,781.139343 354.428802,781.562012 358.585663,783.276001 
	C354.916321,785.438416 354.526733,790.724182 349.919647,790.281128 
	C347.068268,790.006897 348.065430,786.986511 348.320282,784.561401 
z"/>
<path fill="#000000" opacity="1.000000" stroke="none" 
	d="
M606.661255,204.575485 
	C606.226807,205.322769 605.997803,205.848099 605.599854,206.067932 
	C603.552856,207.199112 601.454041,207.438324 599.748596,205.546188 
	C598.735474,204.422165 598.064636,202.803787 599.017517,201.443100 
	C600.421204,199.438721 602.850159,199.467270 604.886963,199.808578 
	C607.269104,200.207794 606.994873,202.363785 606.661255,204.575485 
z"/>
<path fill="#000000" opacity="1.000000" stroke="none" 
	d="
M298.831177,287.967041 
	C297.894775,281.936218 302.686066,281.104156 305.548645,278.575531 
	C305.976379,278.854126 306.404083,279.132690 306.831818,279.411285 
	C305.202301,282.694916 303.799866,286.120850 301.862488,289.211517 
	C300.595367,291.233002 299.781921,289.141174 298.831177,287.967041 
z"/>
<path fill="#000000" opacity="1.000000" stroke="none" 
	d="
M391.163025,664.488647 
	C391.463470,663.783752 391.895599,663.035217 391.998718,663.078125 
	C395.487976,664.528503 398.847565,666.197205 401.782684,668.997742 
	C397.265442,671.571533 393.406677,669.837891 391.163025,664.488647 
z"/>
<path fill="#000000" opacity="1.000000" stroke="none" 
	d="
M491.880798,187.320374 
	C493.347321,187.458450 494.541748,187.514923 495.006531,189.061279 
	C494.145477,190.819153 492.810516,192.148651 490.691803,192.331360 
	C490.282104,192.366714 489.521759,191.627808 489.400635,191.129929 
	C488.952271,189.286484 489.627472,187.928406 491.880798,187.320374 
z"/>
<path fill="#000000" opacity="1.000000" stroke="none" 
	d="
M405.615845,439.489624 
	C404.092316,438.349884 402.286774,437.873566 402.312195,434.947998 
	C405.645142,437.406891 409.350067,438.358795 412.281494,441.847595 
	C408.856262,442.875702 407.646606,440.589142 405.615845,439.489624 
z"/>
<path fill="#000000" opacity="1.000000" stroke="none" 
	d="
M586.117676,200.762039 
	C591.456543,200.010086 589.446289,202.616394 588.391846,205.198669 
	C586.367310,204.229492 585.191284,203.165283 586.117676,200.762039 
z"/>
<path fill="#000000" opacity="1.000000" stroke="none" 
	d="
M615.753845,223.017883 
	C615.199768,225.364685 613.094116,224.496719 611.788574,224.391342 
	C609.736389,224.225723 609.801819,222.268280 609.970764,220.110443 
	C611.875122,221.303268 613.461975,222.668976 615.753845,223.017883 
z"/>
<path fill="#000000" opacity="1.000000" stroke="none" 
	d="
M574.427979,388.618774 
	C573.767578,389.238800 572.722351,390.563507 572.875916,388.863953 
	C573.092834,386.463135 574.175110,384.140045 574.891602,381.784943 
	C575.297852,380.449554 575.915405,379.300140 577.556885,379.373260 
	C578.765137,379.427063 579.906982,379.839844 580.291748,381.092590 
	C580.806458,382.768250 579.527588,383.467163 578.309082,384.008911 
	C576.346924,384.881439 575.282471,386.459076 574.427979,388.618774 
z"/>
<path fill="#000000" opacity="1.000000" stroke="none" 
	d="
M572.755249,580.898560 
	C578.097778,574.993713 579.077576,575.046509 582.877014,581.806763 
	C579.236816,580.413696 576.025635,584.004578 572.755249,580.898560 
z"/>
<path fill="#000000" opacity="1.000000" stroke="none" 
	d="
M558.168701,634.168823 
	C555.103943,636.907898 552.186523,635.308472 549.417786,634.498901 
	C547.508423,633.940674 547.295654,632.189514 547.719727,630.367676 
	C548.421753,627.351501 550.674622,625.311829 553.327026,625.826172 
	C555.855896,626.316589 556.805664,625.599976 557.770813,623.289368 
	C558.540222,627.126465 561.492737,630.318787 558.168701,634.168823 
z"/>
<path fill="#000000" opacity="1.000000" stroke="none" 
	d="
M463.956238,606.591736 
	C460.221222,605.574097 460.221222,605.574097 458.568176,602.515076 
	C460.872559,601.782288 463.103027,600.926636 465.407227,600.383667 
	C467.486816,599.893494 469.607208,600.360901 470.224854,602.637695 
	C470.874207,605.031494 468.408783,604.868530 467.077942,605.529236 
	C466.203491,605.963379 465.241699,606.221497 463.956238,606.591736 
z"/>
<path fill="#000000" opacity="1.000000" stroke="none" 
	d="
M498.645813,414.135620 
	C498.401154,416.025757 497.655243,417.213684 496.131653,417.816437 
	C492.038055,414.108154 492.462555,412.597321 499.040131,408.571838 
	C498.896820,410.486694 498.772339,412.150116 498.645813,414.135620 
z"/>
<path fill="#000000" opacity="1.000000" stroke="none" 
	d="
M777.980774,318.783539 
	C774.357788,318.719604 771.883545,317.506256 770.994568,314.017914 
	C770.595886,312.453888 771.280518,311.435242 772.676758,310.841919 
	C775.755737,309.533569 778.410889,310.140686 780.973511,312.319794 
	C782.683533,313.773926 783.206482,315.492798 783.406738,317.588531 
	C781.757935,318.567719 780.214600,319.490417 777.980774,318.783539 
z"/>
</svg>